<svg width="117" height="36" viewBox="0 0 117 36" fill="none" xmlns="http://www.w3.org/2000/svg">
<path fill-rule="evenodd" clip-rule="evenodd" d="M72.6344 27.5448C65.847 32.555 56.0018 35.2189 47.5286 35.2189C35.6508 35.2189 24.9553 30.829 16.8616 23.5199C16.2266 22.947 16.7922 22.1624 17.5586 22.6076C26.2908 27.6908 37.0922 30.7487 48.2438 30.7487C55.7682 30.7487 64.0407 29.1869 71.6491 25.9575C72.7949 25.4721 73.7583 26.7128 72.6344 27.5448Z" fill="#0D0D0D"/>
<path fill-rule="evenodd" clip-rule="evenodd" d="M75.4581 24.3189C74.5896 23.2059 69.718 23.7934 67.5286 24.0562C66.8644 24.1364 66.7623 23.5562 67.3607 23.1366C71.247 20.4071 77.6147 21.1953 78.3554 22.1075C79.0999 23.0308 78.1584 29.413 74.5166 32.46C73.9546 32.9271 73.4219 32.679 73.6737 32.0586C74.4947 30.0115 76.3265 25.4319 75.4581 24.3189Z" fill="#0D0D0D"/>
<path fill-rule="evenodd" clip-rule="evenodd" d="M67.6825 3.85358V1.20069C67.6825 0.795636 67.989 0.529252 68.354 0.529252H80.2427C80.6222 0.529252 80.9287 0.802934 80.9287 1.19704V3.47042C80.9287 3.85358 80.604 4.34986 80.0347 5.14171L73.8787 13.9324C76.163 13.8776 78.5824 14.2207 80.6587 15.3884C81.1258 15.6511 81.2535 16.0416 81.29 16.4247V19.2564C81.29 19.6469 80.8631 20.0957 80.4142 19.8622C76.7542 17.9464 71.9009 17.7347 67.854 19.8877C67.4417 20.1067 67.0074 19.6615 67.0074 19.271V16.5816C67.0074 16.151 67.0147 15.4139 67.449 14.7571L74.583 4.52136H68.3722C67.9927 4.52136 67.6862 4.25133 67.6862 3.85358H67.6825Z" fill="#0D0D0D"/>
<path fill-rule="evenodd" clip-rule="evenodd" d="M24.3217 20.4166H20.7055C20.3625 20.3947 20.0851 20.1356 20.0596 19.8035V1.24785C20.0596 0.875645 20.3734 0.580068 20.7602 0.580068H24.1283C24.4823 0.598314 24.7633 0.864698 24.7852 1.20406V3.62706H24.8545C25.7303 1.28434 27.387 0.189615 29.6129 0.189615C31.8389 0.189615 33.2912 1.28434 34.3057 3.62706C35.1851 1.28434 37.1739 0.189615 39.3013 0.189615C40.8193 0.189615 42.476 0.813611 43.4868 2.22216C44.6326 3.78397 44.3991 6.05006 44.3991 8.04247V19.7488C44.3991 20.1173 44.0852 20.4166 43.6984 20.4166H40.0858C39.7209 20.3947 39.4363 20.1064 39.4363 19.7488V9.91081C39.4363 9.1299 39.502 7.17763 39.3341 6.43687C39.0641 5.18523 38.254 4.83491 37.2067 4.83491C36.3273 4.83491 35.4186 5.42242 35.0464 6.35659C34.6742 7.2944 34.7107 8.85622 34.7107 9.91081V19.7488C34.7107 20.1173 34.4005 20.4166 34.0137 20.4166H30.4011C30.0362 20.3947 29.7516 20.1064 29.7516 19.7488V9.91081C29.7516 7.84177 30.0837 4.79477 27.522 4.79477C24.9603 4.79477 25.0224 7.76149 25.0224 9.91081V19.7488C25.0224 20.1173 24.7085 20.4166 24.3217 20.4166Z" fill="#0D0D0D"/>
<path fill-rule="evenodd" clip-rule="evenodd" d="M91.1582 0.186485C96.5261 0.186485 99.4271 4.79529 99.4271 10.6557C99.4271 16.5162 96.2195 20.8112 91.1582 20.8112C86.0969 20.8112 83.0244 16.2024 83.0244 10.4623C83.0244 4.72231 85.9254 0.186485 91.1582 0.186485ZM91.1911 3.97425C88.5236 3.97425 88.3557 7.6051 88.3557 9.87119C88.3557 12.1373 88.3229 16.9796 91.1582 16.9796C93.9936 16.9796 94.0958 13.0751 94.0958 10.6922C94.0958 9.13042 94.0301 7.25479 93.5557 5.7696C93.1507 4.48147 92.3405 3.97425 91.1911 3.97425Z" fill="#0D0D0D"/>
<path fill-rule="evenodd" clip-rule="evenodd" d="M106.389 20.4166H102.787C102.426 20.3947 102.138 20.1064 102.138 19.7488L102.13 1.18217C102.16 0.842803 102.463 0.576419 102.824 0.576419H106.177C106.495 0.591015 106.754 0.806312 106.82 1.09459V3.93359H106.889C107.903 1.39382 109.319 0.182316 111.815 0.182316C113.435 0.182316 115.023 0.766172 116.034 2.37177C116.979 3.85696 116.979 6.35659 116.979 8.15194V19.8327C116.938 20.1611 116.643 20.4166 116.285 20.4166H112.662C112.326 20.3947 112.056 20.1502 112.02 19.8327V9.75754C112.02 7.725 112.257 4.75828 109.757 4.75828C108.878 4.75828 108.068 5.34579 107.662 6.24346C107.155 7.37833 107.09 8.50955 107.09 9.76119V19.7561C107.082 20.1246 106.772 20.4239 106.385 20.4239L106.389 20.4166Z" fill="#0D0D0D"/>
<path fill-rule="evenodd" clip-rule="evenodd" d="M58.2098 11.553C58.2098 12.9616 58.2426 14.1366 57.5311 15.3882C56.9545 16.4063 56.0422 17.0303 55.0278 17.0303C53.6411 17.0303 52.8274 15.9721 52.8274 14.4066C52.8274 11.3268 55.5897 10.7685 58.2062 10.7685V11.5494L58.2098 11.553ZM61.8552 20.3692C61.6181 20.5845 61.2714 20.5991 61.0014 20.4532C59.8008 19.4533 59.5855 18.9935 58.9287 18.0448C56.9436 20.0664 55.5387 20.6721 52.966 20.6721C49.9227 20.6721 47.5544 18.7928 47.5544 15.0343C47.5544 12.1004 49.1454 10.1007 51.4115 9.12274C53.3747 8.26155 56.1152 8.10464 58.2134 7.8711V7.40037C58.2134 6.53918 58.2791 5.52108 57.7719 4.77667C57.3304 4.11253 56.4874 3.8352 55.743 3.8352C54.3637 3.8352 53.1376 4.54312 52.8347 6.00641C52.7726 6.33118 52.5355 6.65595 52.207 6.67055L48.7003 6.29104C48.4047 6.22536 48.0763 5.98817 48.1602 5.53568C48.9666 1.28448 52.8055 0 56.2466 0C58.0055 0 60.308 0.470733 61.6947 1.799C63.4535 3.4411 63.2857 5.6342 63.2857 8.02436V13.6586C63.2857 15.3554 63.99 16.0962 64.6505 17.0084C64.8803 17.3369 64.9351 17.7273 64.6395 17.9681C63.9024 18.5885 62.5887 19.727 61.8662 20.3692L61.8552 20.3619V20.3692Z" fill="#0D0D0D"/>
<path fill-rule="evenodd" clip-rule="evenodd" d="M10.7984 11.5529C10.7984 12.9614 10.8313 14.1364 10.1233 15.3881C9.55044 16.4062 8.63451 17.0302 7.62006 17.0302C6.23341 17.0302 5.41966 15.9719 5.41966 14.4065C5.41966 11.3266 8.18203 10.7683 10.7984 10.7683V11.5529ZM14.4439 20.3691C14.2067 20.5844 13.86 20.599 13.59 20.453C12.3894 19.4532 12.1741 18.9934 11.5173 18.0446C9.53219 20.0662 8.12729 20.672 5.55468 20.672C2.51133 20.672 0.143066 18.7927 0.143066 15.0341C0.143066 12.1002 1.73407 10.1005 4.00016 9.12257C5.96337 8.26138 8.70385 8.10447 10.7984 7.87093V7.4002C10.7984 6.53901 10.8678 5.52091 10.3605 4.7765C9.91899 4.11236 9.07605 3.83503 8.33164 3.83503C6.95228 3.83503 5.72618 4.54296 5.42331 6.00624C5.36127 6.33101 5.12408 6.65578 4.79566 6.67038L1.29253 6.29087C0.996955 6.22519 0.668536 5.988 0.752465 5.53551C1.55527 1.29161 5.39412 0.00713009 8.83886 0.00713009C10.5977 0.00713009 12.8967 0.477863 14.287 1.80613C16.0458 3.44823 15.878 5.64133 15.878 8.03149V13.6657C15.878 15.3625 16.5822 16.1033 17.2427 17.0156C17.4726 17.344 17.5274 17.7344 17.2318 17.9753C16.4947 18.5956 15.181 19.7341 14.4585 20.3764L14.4512 20.3691H14.4439Z" fill="#0D0D0D"/>
</svg>
