<svg width="161" height="20" viewBox="0 0 161 20" fill="none" xmlns="http://www.w3.org/2000/svg">
<path d="M91.5832 0.820607C89.9341 0.820607 88.5001 1.78203 87.7759 3.05664C87.0518 4.33125 85.0083 7.94386 84.277 9.21848C83.5385 10.5004 84.5065 11.9061 85.797 11.9061H97.9357C97.9357 11.9061 96.1074 15.1254 95.7561 15.7372C95.4047 16.349 94.8311 16.6695 94.2074 16.6695H92.3217C91.6979 16.6695 91.4326 15.9776 91.662 15.5624C91.8915 15.1472 92.3862 14.2878 92.3862 14.2878H81.3804C81.3804 14.2878 80.5271 15.7882 79.7815 17.0992C79.0358 18.4102 80.0324 19.8305 81.2871 19.8305H101.858C103.492 19.8305 104.948 18.9201 105.729 17.5362C106.511 16.1524 108.354 12.8894 109.15 11.5055C109.945 10.1216 108.942 8.74505 107.673 8.74505H95.5338C95.5338 8.74505 97.5199 5.24897 97.778 4.79739C98.0361 4.34582 98.6241 3.96708 99.2765 3.96708H101.169C101.786 3.96708 102.044 4.65172 101.851 5.00862C101.657 5.36551 101.091 6.34878 101.091 6.34878H112.082C112.082 6.34878 113.122 4.52062 113.731 3.44995C114.341 2.37199 113.581 0.813323 112.175 0.813323H91.5688L91.5832 0.820607Z" fill="#0D0D0D"/>
<path d="M82.8727 0.820607H62.3237C60.8324 0.820607 59.2837 1.63636 58.4878 3.03479C57.6848 4.43322 51.1673 15.912 50.4575 17.1575C49.7477 18.403 50.7228 19.8305 51.9847 19.8305H72.5695C74.2258 19.8305 75.6813 18.8764 76.4055 17.6091C77.1296 16.3417 83.7331 4.70999 84.4215 3.50093C85.1098 2.28459 84.2279 0.813323 82.8656 0.813323L82.8727 0.820607ZM72.5194 5.1033C72.2254 5.62043 66.7547 15.2419 66.4536 15.7809C66.1525 16.3199 65.5574 16.6841 64.9264 16.6841H63.012C62.4026 16.6841 62.1158 15.9994 62.3524 15.5843C62.589 15.1691 68.1099 5.45291 68.4468 4.86295C68.7838 4.2657 69.422 3.98893 69.9669 3.98893H71.8812C72.4333 3.98893 72.8133 4.60074 72.5122 5.11058L72.5194 5.1033Z" fill="#0D0D0D"/>
<path d="M53.6062 0.821789H30.39L21.3774 16.678H0.52002V19.839C0.52002 19.839 41.7256 19.839 43.2815 19.839C44.8374 19.839 46.3144 19.016 47.1389 17.5811C47.9563 16.139 49.2469 13.8665 49.799 12.8833C50.3511 11.9073 49.7703 10.6545 48.7378 10.334C50.2435 10.334 51.7707 9.4236 52.5164 8.11985C53.262 6.81611 54.4451 4.71118 55.1191 3.52397C55.8002 2.33676 54.9685 0.829073 53.6062 0.829073V0.821789ZM41.2811 13.0362C41.0086 13.5242 40.0765 15.1557 39.7109 15.8039C39.3452 16.4449 38.7286 16.6925 38.198 16.6925C37.6674 16.6925 32.3689 16.6925 32.3689 16.6925L35.0791 11.9218H40.6358C41.2166 11.9218 41.5535 12.5482 41.2739 13.0435L41.2811 13.0362ZM45.7838 5.0972C45.5113 5.59248 44.5793 7.2167 44.2136 7.85764C43.8479 8.50588 43.2313 8.74623 42.7007 8.74623H36.8716L39.5818 3.97554H45.1385C45.7193 3.97554 46.0491 4.60192 45.7766 5.0972H45.7838Z" fill="#0D0D0D"/>
<path d="M118.329 0.821661L107.524 19.8389H133.716L135.508 16.6851H120.308L123.018 11.9144H138.219L140.018 8.75339H124.818L127.528 3.97541H156.057V0.821661H118.329Z" fill="#0D0D0D"/>
<path d="M158.974 0.762817C159.899 0.762817 160.601 1.4766 160.601 2.41617C160.601 3.35574 159.899 4.06224 158.974 4.06224C158.049 4.06224 157.339 3.36302 157.339 2.41617C157.339 1.46932 158.035 0.762817 158.974 0.762817ZM158.974 3.80003C159.748 3.80003 160.329 3.21007 160.329 2.42345C160.329 1.63684 159.741 1.03231 158.974 1.03231C158.207 1.03231 157.604 1.63684 157.604 2.42345C157.604 3.21007 158.192 3.80003 158.974 3.80003ZM159.275 2.59097L159.727 3.31204H159.375L158.945 2.62011H158.658V3.31204H158.35V1.53487H159.117C159.418 1.53487 159.648 1.76066 159.648 2.052V2.13211C159.648 2.36519 159.504 2.52542 159.275 2.59097ZM158.658 2.37975H159.074C159.21 2.37975 159.354 2.29963 159.354 2.15396V2.06656C159.354 1.92089 159.225 1.80436 159.074 1.80436H158.658V2.37975Z" fill="#0D0D0D"/>
</svg>
