<svg width="181" height="22" viewBox="0 0 181 22" fill="none" xmlns="http://www.w3.org/2000/svg">
<path d="M0 1.22384H13.5109V3.5106H2.34491V9.46861H12.2568V11.7554H2.34491V20.5342H0V1.22384Z" fill="#0D0D0D"/>
<path d="M14.8215 10.9521C14.8215 5.22744 18.6314 0.762817 24.4752 0.762817C30.2927 0.762817 34.0498 5.25337 34.0498 10.9521C34.0498 16.7546 30.0819 21.017 24.4752 21.017C18.8369 21.017 14.8215 16.7546 14.8215 10.9521ZM31.5415 10.9262C31.5415 6.46156 28.7751 3.07032 24.4699 3.07032C20.1648 3.07032 17.372 6.45638 17.372 10.9262C17.372 15.4945 20.3703 18.7302 24.4699 18.7302C28.5432 18.7302 31.5415 15.5204 31.5415 10.9262Z" fill="#0D0D0D"/>
<path d="M36.9192 13.2384V1.22384H39.2904V13.2384C39.2904 16.8319 41.14 18.7038 44.4808 18.7038C47.9007 18.7038 49.803 16.8578 49.803 13.2643V1.22384H52.1742V13.2643C52.1742 18.2682 49.255 21.0165 44.4808 21.0165C39.7383 21.0165 36.9192 18.3201 36.9192 13.2384Z" fill="#0D0D0D"/>
<path d="M55.9195 1.22384H64.0608C67.8443 1.22384 70.3473 3.55727 70.3473 6.76702C70.3473 8.95007 69.1722 10.7183 66.9853 11.5946C69.4883 13.031 68.6294 16.3185 70.8478 20.529H68.1868C66.6481 17.6563 66.9853 12.2117 63.439 12.2117H58.2749V20.529H55.93V1.22384H55.9195ZM64.0081 9.92493C66.3319 9.92493 67.9444 8.59228 67.9444 6.66332C67.9444 4.76546 66.4057 3.50541 64.0081 3.50541H58.2697V9.92493H64.0081Z" fill="#0D0D0D"/>
<path d="M72.8773 15.0075L75.2275 14.546C75.6965 17.2943 77.4723 18.7047 80.4179 18.7047C83.2634 18.7047 85.2447 17.3721 85.2447 15.469C85.2447 13.7993 83.706 12.643 79.9489 11.5696C75.3856 10.2836 73.4253 8.38579 73.4253 5.71532C73.4253 2.66112 75.981 0.763268 80.0754 0.763268C84.0644 0.763268 86.4672 2.5626 87.2735 6.00051L84.8495 6.51387C84.3278 4.20118 82.7628 3.05003 80.0227 3.05003C77.467 3.05003 75.8756 4.02488 75.8756 5.69458C75.8756 7.23464 77.2035 8.28727 80.9343 9.41769C85.8402 10.88 87.6634 12.7778 87.6634 15.4742C87.6634 18.8395 84.8706 21.0174 80.5391 21.0174C76.2076 21.0174 73.5307 18.9121 72.8773 15.0075Z" fill="#0D0D0D"/>
<path d="M89.7236 10.9526C89.7236 5.22789 93.5334 0.763268 99.3773 0.763268C105.195 0.763268 108.952 5.25382 108.952 10.9526C108.952 13.7786 108.014 16.2417 106.396 18.0099C107.181 18.7773 107.935 19.5499 108.667 20.3433L106.997 21.9611C106.238 21.1678 105.432 20.3433 104.62 19.524C103.134 20.4729 101.359 21.0122 99.3773 21.0122C93.7442 21.0174 89.7236 16.755 89.7236 10.9526ZM102.845 17.8336C102.059 17.1128 101.306 16.3972 100.521 15.7283L102.165 14.1105C102.997 14.8312 103.835 15.5727 104.641 16.3194C105.764 14.9609 106.444 13.1097 106.444 10.9266C106.444 6.46201 103.677 3.07077 99.372 3.07077C95.0669 3.07077 92.274 6.45683 92.274 10.9266C92.274 15.495 95.2724 18.7306 99.372 18.7306C100.658 18.7306 101.828 18.4247 102.845 17.8336Z" fill="#0D0D0D"/>
<path d="M111.929 13.2388V1.22426H114.3V13.2388C114.3 16.8323 116.149 18.7042 119.49 18.7042C122.91 18.7042 124.812 16.8582 124.812 13.2647V1.22426H127.184V13.2647C127.184 18.2686 124.264 21.0169 119.49 21.0169C114.742 21.0169 111.929 18.3205 111.929 13.2388Z" fill="#0D0D0D"/>
<path d="M135.986 1.22426H138.753L146.372 20.5295H143.869L141.677 14.9604H133.041L130.875 20.5295H128.319L135.986 1.22426ZM140.734 12.6995L137.393 4.02437L133.973 12.6995H140.734Z" fill="#0D0D0D"/>
<path d="M148.471 1.22426H156.612C160.396 1.22426 162.899 3.55769 162.899 6.76744C162.899 8.95049 161.724 10.7187 159.537 11.595C162.04 13.0314 161.181 16.3189 163.4 20.5295H160.738C159.2 17.6568 159.537 12.2121 155.991 12.2121H150.827V20.5295H148.482V1.22426H148.471ZM156.554 9.92534C158.878 9.92534 160.491 8.5927 160.491 6.66373C160.491 4.76588 158.952 3.50583 156.554 3.50583H150.816V9.92534H156.554Z" fill="#0D0D0D"/>
<path d="M166.324 1.22426H179.993V3.51102H168.674V9.46903H179.134V11.7558H168.674V18.222H180.23V20.5347H166.324V1.22426Z" fill="#0D0D0D"/>
</svg>
