<svg width="124" height="36" viewBox="0 0 124 36" fill="none" xmlns="http://www.w3.org/2000/svg">
<path d="M52.1961 31.5303C48.7548 31.5875 46.0368 30.1344 45.7764 26.9427C45.7758 26.9163 45.7806 26.89 45.7906 26.8655C45.8005 26.841 45.8155 26.8187 45.8344 26.8001C45.8533 26.7815 45.8759 26.7668 45.9007 26.757C45.9256 26.7473 45.9522 26.7426 45.9789 26.7433H48.1778C48.2936 26.7433 48.3803 26.8286 48.4094 26.9427C48.6695 28.7949 50.1731 29.6506 52.2551 29.6506C54.6842 29.6506 56.3611 28.2259 56.3611 24.9201V23.2676C55.4068 24.8924 53.8166 25.8605 51.7352 25.8605C47.5712 25.8605 45.3738 22.7548 45.3738 18.5659C45.3738 14.4054 47.6292 11.0431 51.6486 11.0431C53.7305 11.0431 55.3208 11.9262 56.3043 13.5507L56.2172 11.4703C56.2166 11.4439 56.2214 11.4176 56.2314 11.3931C56.2414 11.3686 56.2563 11.3464 56.2752 11.3277C56.2942 11.3091 56.3167 11.2944 56.3416 11.2847C56.3664 11.2749 56.393 11.2702 56.4197 11.2709H58.647C58.6738 11.2702 58.7003 11.2749 58.7252 11.2847C58.75 11.2944 58.7726 11.3091 58.7915 11.3277C58.8105 11.3464 58.8254 11.3686 58.8354 11.3931C58.8453 11.4176 58.8501 11.4439 58.8495 11.4703L58.7916 17.1408L58.8204 24.9489C58.8468 29.1663 56.4465 31.5303 52.1961 31.5303ZM52.3116 24.0079C54.7407 24.0079 56.331 22.2978 56.3598 18.6789C56.3889 15.1741 55.0008 13.0656 52.5429 12.8943H52.0498C49.3897 12.98 48.0308 15.1454 48.0308 18.4796C48.0321 22.0138 49.4778 24.0363 52.3116 24.0079Z" fill="#0D0D0D"/>
<path d="M71.7907 25.9455C71.764 25.9462 71.7374 25.9415 71.7126 25.9317C71.6878 25.9219 71.6653 25.9072 71.6464 25.8886C71.6275 25.87 71.6126 25.8477 71.6027 25.8232C71.5927 25.7988 71.5879 25.7725 71.5885 25.7462L71.6461 23.5798C70.6342 25.2327 69.0419 26.2302 66.8749 26.2302C62.8555 26.2302 60.7156 22.896 60.7156 18.6502C60.7156 14.4045 63.0001 10.985 66.9328 10.985C69.0436 10.985 70.6335 11.8684 71.6173 13.4925L71.5594 11.4694C71.5588 11.4429 71.5636 11.4167 71.5736 11.3922C71.5835 11.3677 71.5984 11.3454 71.6174 11.3268C71.6363 11.3081 71.6589 11.2935 71.6837 11.2837C71.7086 11.274 71.7352 11.2693 71.7619 11.27H74.0159C74.0426 11.2693 74.0692 11.274 74.0941 11.2837C74.1189 11.2935 74.1415 11.3081 74.1604 11.3268C74.1794 11.3454 74.1943 11.3677 74.2043 11.3922C74.2142 11.4167 74.219 11.4429 74.2184 11.4694L74.1317 18.4793L74.2215 25.7472C74.222 25.7738 74.217 25.8002 74.2068 25.8248C74.1965 25.8494 74.1813 25.8716 74.1621 25.8902C74.1428 25.9088 74.1199 25.9233 74.0948 25.9328C74.0697 25.9423 74.0428 25.9466 74.0159 25.9455H71.7907ZM67.5417 24.3207C70.1151 24.3207 71.6769 22.4401 71.7057 18.7355C71.7345 15.1735 70.3467 13.065 67.8888 12.8937H67.3971C64.6791 12.9794 63.4068 15.2294 63.4068 18.4505C63.4051 21.957 64.735 24.3207 67.5396 24.3207H67.5417Z" fill="#0D0D0D"/>
<path d="M76.9314 25.9453C76.9047 25.9459 76.8781 25.9412 76.8533 25.9314C76.8285 25.9217 76.806 25.907 76.7871 25.8884C76.7682 25.8697 76.7533 25.8475 76.7434 25.823C76.7334 25.7985 76.7286 25.7723 76.7292 25.7459L76.8159 15.8581L76.7292 6.19804C76.7286 6.17166 76.7334 6.14544 76.7434 6.12095C76.7533 6.09647 76.7682 6.07423 76.7871 6.05559C76.806 6.03695 76.8285 6.0223 76.8533 6.01251C76.8781 6.00272 76.9047 5.99801 76.9314 5.99866H79.1587C79.1854 5.99797 79.212 6.00264 79.2368 6.01241C79.2617 6.02217 79.2843 6.03682 79.3032 6.05547C79.3221 6.07411 79.337 6.09636 79.347 6.12087C79.357 6.14538 79.3618 6.17163 79.3612 6.19804L79.2745 15.8296L79.3612 25.7476C79.3618 25.774 79.357 25.8003 79.347 25.8248C79.337 25.8493 79.3221 25.8715 79.3032 25.8902C79.2843 25.9088 79.2617 25.9235 79.2368 25.9332C79.212 25.943 79.1854 25.9477 79.1587 25.947L76.9314 25.9453Z" fill="#0D0D0D"/>
<path d="M92.3196 25.9455C92.2929 25.9462 92.2664 25.9415 92.2415 25.9317C92.2167 25.9219 92.1942 25.9073 92.1752 25.8886C92.1563 25.87 92.1414 25.8478 92.1314 25.8233C92.1214 25.7988 92.1166 25.7725 92.1171 25.7462L92.175 23.5798C91.1632 25.2327 89.5725 26.2302 87.4038 26.2302C83.3844 26.2302 81.2445 22.896 81.2445 18.6502C81.2445 14.4045 83.529 10.985 87.4617 10.985C89.5725 10.985 91.1625 11.8684 92.1459 13.4925L92.0883 11.4694C92.0877 11.4429 92.0925 11.4167 92.1025 11.3922C92.1125 11.3677 92.1274 11.3454 92.1463 11.3268C92.1653 11.3081 92.1878 11.2935 92.2127 11.2837C92.2375 11.274 92.2641 11.2693 92.2909 11.27H94.5462C94.573 11.2693 94.5996 11.274 94.6244 11.2837C94.6493 11.2935 94.6718 11.3081 94.6908 11.3268C94.7097 11.3454 94.7246 11.3677 94.7346 11.3922C94.7445 11.4167 94.7494 11.4429 94.7488 11.4694L94.6617 18.4793L94.7488 25.7458C94.7493 25.7722 94.7445 25.7984 94.7345 25.8229C94.7245 25.8474 94.7096 25.8696 94.6906 25.8883C94.6717 25.9069 94.6492 25.9216 94.6244 25.9313C94.5995 25.9411 94.573 25.9458 94.5462 25.9452L92.3196 25.9455ZM88.0707 24.3207C90.644 24.3207 92.2059 22.4401 92.2347 18.7355C92.2634 15.1735 90.8757 13.065 88.4178 12.8937H87.9261C85.2077 12.9794 83.9358 15.2294 83.9358 18.4505C83.9341 21.957 85.2639 24.3207 88.0689 24.3207H88.0707Z" fill="#0D0D0D"/>
<path d="M106.572 25.9454C106.456 25.9454 106.311 25.8882 106.253 25.7761L102.553 19.7922L98.8509 25.7761C98.793 25.8898 98.6484 25.9454 98.5326 25.9454H96.1905C96.1703 25.946 96.1504 25.941 96.133 25.9308C96.1157 25.9207 96.1016 25.9058 96.0925 25.888C96.0834 25.8703 96.0796 25.8503 96.0816 25.8305C96.0836 25.8106 96.0913 25.7918 96.1038 25.7761L100.933 18.1677L96.5085 11.4421C96.4955 11.4265 96.4873 11.4075 96.485 11.3873C96.4827 11.3672 96.4864 11.3469 96.4956 11.3288C96.5048 11.3107 96.519 11.2956 96.5367 11.2854C96.5544 11.2752 96.5747 11.2702 96.5952 11.2712H99.1689C99.2844 11.2712 99.4293 11.328 99.4869 11.4421L102.841 16.8276L106.08 11.4421C106.116 11.3909 106.163 11.3487 106.218 11.319C106.274 11.2893 106.335 11.2729 106.398 11.2712H108.653C108.674 11.2702 108.694 11.2752 108.712 11.2854C108.729 11.2956 108.744 11.3107 108.753 11.3288C108.762 11.3469 108.766 11.3672 108.764 11.3873C108.761 11.4075 108.753 11.4265 108.74 11.4421L104.461 18.2527L109.232 25.7761C109.244 25.7918 109.252 25.8106 109.254 25.8305C109.256 25.8503 109.252 25.8703 109.243 25.888C109.234 25.9058 109.22 25.9207 109.203 25.9308C109.185 25.941 109.165 25.946 109.145 25.9454H106.572Z" fill="#0D0D0D"/>
<path d="M116.583 30.5916C116.567 30.6481 116.533 30.6979 116.486 30.7338C116.439 30.7698 116.382 30.7899 116.323 30.7914H114.212C114.188 30.7904 114.165 30.784 114.144 30.7727C114.123 30.7615 114.104 30.7456 114.09 30.7264C114.076 30.7071 114.067 30.685 114.063 30.6616C114.059 30.6383 114.061 30.6143 114.067 30.5916L115.687 25.9756L109.846 11.4713C109.788 11.3572 109.846 11.2719 109.961 11.2719H112.535C112.594 11.2733 112.651 11.2934 112.698 11.3293C112.745 11.3652 112.779 11.4149 112.795 11.4713L117.046 22.5845L120.631 11.4713C120.648 11.415 120.682 11.3652 120.728 11.3294C120.775 11.2935 120.832 11.2734 120.892 11.2719H123.205C123.321 11.2719 123.379 11.3572 123.349 11.4713L116.583 30.5916Z" fill="#0D0D0D"/>
<path d="M5.19986 5.99961H30.3076V30.8007C33.52 27.6272 35.5074 23.2437 35.5074 18.4011C35.5074 8.71606 27.5588 0.862915 17.7539 0.862915C7.94902 0.862915 0 8.71606 0 18.4011C0 23.2417 1.98743 27.6232 5.19986 30.7963V5.99961Z" fill="#0D0D0D"/>
<path d="M5.2005 30.8025V35.7628H30.3082V30.8025H5.2005Z" fill="#0D0D0D"/>
</svg>
