<svg width="127" height="27" viewBox="0 0 127 27" fill="none" xmlns="http://www.w3.org/2000/svg">
<path d="M23.5957 7.42625C22.7614 3.14886 19.896 0.0471898 14.7267 0.000111823H14.5009C8.60243 0.0367902 4.22574 2.99655 1.90584 7.42625C0.624218 9.92719 -0.0295059 12.7029 0.00102213 15.5135C0.00102213 21.1971 3.14977 24.7759 7.18539 25.7784C7.96816 25.9724 8.77207 26.0694 9.57843 26.0668C10.4616 26.0771 11.3427 25.9796 12.2025 25.7784C13.7927 25.4197 15.2149 24.5335 16.2381 23.2645V25.5211C16.2353 25.5544 16.2353 25.5876 16.2381 25.6212C16.2786 25.7112 16.3655 25.7718 16.4639 25.7785H19.9538C19.9961 25.7736 20.0371 25.7615 20.0746 25.7415C20.133 25.7047 20.1744 25.646 20.1901 25.579L22.5988 13.2565C22.6014 13.2342 22.6014 13.2115 22.5988 13.1884C22.5988 13.0433 22.4815 12.926 22.3365 12.926H13.5776C13.4557 12.922 13.3469 13.0025 13.3151 13.1203L12.654 16.4577V16.5054C12.6483 16.5397 12.6483 16.5757 12.654 16.6103C12.6946 16.7066 12.7905 16.7692 12.8955 16.7675H17.3142C16.3643 19.3915 14.1655 21.6852 10.6491 21.6852C7.13317 21.6852 4.91838 19.1501 4.91838 14.8207C4.87175 12.1441 5.74633 9.53357 7.39562 7.42625C8.92873 5.49247 11.2624 4.36752 13.7297 4.37166C16.1805 4.37166 17.6081 5.48956 18.5632 7.42625C18.8099 7.93449 19.0184 8.46095 19.1876 9.00051C19.2277 9.09835 19.323 9.16243 19.4289 9.16299H19.5025L23.4648 8.11341C23.4914 8.10882 23.5165 8.09741 23.5382 8.0821C23.617 8.0339 23.6648 7.94835 23.6643 7.85654V7.81472C23.6643 7.68847 23.617 7.5573 23.5907 7.43128M33.2994 0.262563C33.2994 0.117415 33.1817 0 33.037 0H29.0171C28.8891 0.00111824 28.7805 0.0943796 28.76 0.220294L23.8741 25.4578V25.5157C23.8662 25.5485 23.8662 25.5828 23.8741 25.6158C23.9144 25.7131 24.0095 25.7777 24.1156 25.7783H28.1302C28.2508 25.7817 28.3577 25.7007 28.3874 25.5839L33.2783 0.304497V0.262563M45.8525 7.42625C45.0721 7.22943 44.2696 7.13293 43.4647 7.13696C42.5018 7.12589 41.5405 7.22217 40.5994 7.42625C38.8386 7.84793 37.2328 8.75774 35.9654 10.0503C33.7821 12.1494 32.8166 14.8574 32.8166 18.3157C32.8166 21.9055 34.8894 24.8649 38.4371 25.7784C39.2196 25.9746 40.0236 26.0719 40.8302 26.0668C41.8123 26.0852 42.7931 25.9879 43.7531 25.7784C45.5122 25.3568 47.1168 24.4472 48.3818 23.1543C50.5651 21.0552 51.5305 18.3528 51.5305 14.8939C51.5305 11.2985 49.4312 8.33381 45.91 7.42625M45.2961 20.2416C44.3564 21.5239 42.8443 22.2608 41.2552 22.2097C39.1086 22.2097 37.6866 20.462 37.6866 17.6227C37.6866 15.6548 38.1221 14.1276 39.035 12.9628C39.9807 11.6902 41.4917 10.9635 43.0761 11.0208C45.2225 11.0208 46.6448 12.7684 46.6448 15.6076C46.6448 17.5759 46.2039 19.1029 45.296 20.2679M66.5767 10.0653C65.9631 8.86934 64.5773 7.89311 62.9715 7.44134C62.3167 7.25023 61.6381 7.15339 60.9561 7.15283C60.1702 7.14635 59.3867 7.24375 58.626 7.44134C56.1506 7.97955 54.4266 10.2272 54.5483 12.758C54.5483 15.1983 56.1541 16.6203 58.3007 17.638C60.447 18.6564 61.4494 19.276 61.4494 20.3308C61.4494 21.6427 60.3527 22.2251 59.1193 22.2251C57.3824 22.2251 56.1436 21.1753 55.6243 19.3653C55.585 19.259 55.4851 19.1885 55.3723 19.1868C55.3393 19.1817 55.3058 19.1817 55.2728 19.1868L51.8926 20.5932C51.7947 20.6331 51.7307 20.7283 51.7304 20.8345V20.8759C52.3009 23.2325 54.0919 25.102 56.422 25.7725C57.1309 25.9693 57.8638 26.066 58.5997 26.0614C59.4672 26.0685 60.3323 25.9711 61.1766 25.7725C63.9581 25.0852 65.8099 23.1484 65.8099 19.6901C65.8099 17.145 63.9158 15.9069 62.0266 15.0304C60.7881 14.4472 58.8778 13.902 58.8778 12.6266C58.8679 11.7278 59.588 10.9919 60.4864 10.9816C60.5451 10.9805 60.604 10.9835 60.6624 10.9886C61.7235 10.9892 62.7181 11.5064 63.3281 12.3745C63.3783 12.4402 63.4557 12.4786 63.538 12.4791C63.5862 12.478 63.6327 12.4654 63.6748 12.443L66.5032 10.4067C66.6033 10.3329 66.6329 10.195 66.5718 10.0869M77.9702 7.42625C77.315 7.23536 76.6368 7.13807 75.9546 7.13696C75.1674 7.13103 74.3822 7.22832 73.6198 7.42625C71.146 7.96647 69.4246 10.2135 69.5474 12.7418C69.5474 15.1824 71.1219 16.6049 73.2992 17.6227C75.3723 18.6043 76.4482 19.2603 76.4482 20.3149C76.4482 21.6268 75.3571 22.2096 74.1178 22.2096C72.3811 22.2096 71.137 21.1599 70.6173 19.3385C70.5807 19.2383 70.4844 19.1704 70.3767 19.1704C70.3417 19.1633 70.3059 19.1633 70.2708 19.1704L66.8968 20.5722C66.8001 20.6127 66.7378 20.7084 66.7396 20.8135C66.7368 20.8308 66.7368 20.8485 66.7396 20.8657C67.3127 23.2172 69.1001 25.0809 71.4263 25.752C72.1368 25.9477 72.8716 26.0444 73.6095 26.0404C74.4746 26.0482 75.3382 25.9506 76.1806 25.752C78.9619 25.0643 80.8197 23.1279 80.8197 19.6697C80.8197 17.124 78.9251 15.8853 77.0304 15.0088C75.7918 14.4268 73.882 13.881 73.882 12.605C73.8718 11.7072 74.5926 10.9703 75.4901 10.9606C75.5489 10.96 75.6079 10.9622 75.6663 10.9684C76.7244 10.9688 77.7166 11.4833 78.3265 12.348C78.3757 12.4185 78.4563 12.4596 78.5423 12.4584C78.5898 12.4565 78.6364 12.4441 78.6785 12.4218L81.5389 10.3854C81.5951 10.3321 81.6275 10.2583 81.6281 10.181C81.6281 10.1411 81.6189 10.1011 81.6016 10.0651C80.988 8.86397 79.6026 7.88719 77.9963 7.44112M89.7358 7.42625H85.7367C85.6211 7.4277 85.5195 7.50408 85.4848 7.61478L82.0216 25.458C82.0184 25.4776 82.0184 25.497 82.0216 25.5159C82.0161 25.5493 82.0161 25.5825 82.0216 25.616C82.0627 25.7127 82.1579 25.7764 82.2627 25.7785H86.2618C86.3094 25.7768 86.3559 25.7644 86.3981 25.7415C86.4563 25.7065 86.4982 25.6498 86.5138 25.5841L89.9879 7.70905C89.9851 7.56547 89.8693 7.44984 89.7255 7.44649M103.9 7.42625C103.141 7.22832 102.359 7.13103 101.575 7.13696C100.692 7.13561 99.8122 7.23245 98.9515 7.42625C94.0592 8.54337 90.615 12.9303 90.6907 17.9482C90.6907 22.1468 92.9379 24.9178 96.228 25.7783C96.9872 25.9749 97.7684 26.0718 98.5525 26.0667C99.4689 26.0754 100.382 25.9786 101.276 25.7783C103.832 25.185 105.694 23.6791 107.427 21.1651C107.5 21.0417 107.46 20.8833 107.338 20.8085L104.189 19.1761C104.156 19.1594 104.121 19.1505 104.084 19.1499C104.006 19.1521 103.933 19.1886 103.885 19.2494C102.568 21.1443 101.061 22.2097 98.978 22.2097C96.5746 22.2097 95.2623 20.5355 95.2623 18.6406V18.0586H108.246C108.293 18.0569 108.34 18.0443 108.382 18.0216C108.436 17.9877 108.477 17.9356 108.497 17.875C108.797 16.7712 108.951 15.6332 108.954 14.4895C108.954 11.0998 107.222 8.30764 103.921 7.42625M96.1121 14.4894C96.8816 12.4444 98.8086 11.0648 100.993 10.9946C103.286 10.9946 104.341 12.1966 104.488 14.4894H96.1121ZM123.628 11.5456C123.666 11.5672 123.709 11.5781 123.753 11.5775C123.801 11.5786 123.848 11.5651 123.89 11.5404C123.936 11.5101 123.973 11.4661 123.995 11.4145L125.333 7.87209C125.338 7.83709 125.338 7.80175 125.333 7.76697C125.331 7.66208 125.268 7.56714 125.171 7.52555L124.924 7.43631C124.319 7.22273 123.68 7.12488 123.039 7.1478C122.374 7.1449 121.712 7.24218 121.077 7.43631C119.562 7.93561 118.239 8.89081 117.288 10.1705L117.765 7.76183C117.806 7.62898 117.731 7.48764 117.598 7.44716C117.571 7.43911 117.542 7.43553 117.513 7.43631H113.499C113.372 7.43687 113.264 7.52767 113.241 7.6518L109.773 25.4948C109.77 25.5086 109.77 25.5229 109.773 25.537C109.765 25.5697 109.765 25.6035 109.773 25.6363C109.813 25.7347 109.909 25.7987 110.014 25.7993H114.076C114.124 25.7978 114.17 25.7849 114.212 25.7625C114.271 25.7255 114.313 25.667 114.328 25.5995L115.566 19.3021C116.658 13.5293 119.765 11.2202 122.047 11.2202C122.593 11.2096 123.132 11.3284 123.622 11.5669M88.5393 0.283363C87.1108 0.283363 85.9526 1.44175 85.9526 2.87109C85.9526 4.29986 87.1107 5.45814 88.5393 5.45814C89.9683 5.45814 91.1264 4.29998 91.1264 2.87109C91.1563 1.47094 90.0451 0.312549 88.6453 0.283363C88.6101 0.282803 88.575 0.282803 88.5393 0.283363ZM123.864 20.9602C122.429 20.9665 121.27 22.1344 121.277 23.5689C121.28 24.4723 121.753 25.3093 122.525 25.7784C123.354 26.2472 124.368 26.2472 125.196 25.7784C126.423 25.0331 126.812 23.435 126.067 22.2093C125.599 21.4389 124.765 20.9664 123.864 20.9602Z" fill="#0D0D0D"/>
</svg>
