<svg width="98" height="34" viewBox="0 0 98 34" fill="none" xmlns="http://www.w3.org/2000/svg">
<path d="M0 30.1261C0.55745 30.1049 1.11654 30.166 1.67153 30.052C2.59488 29.8622 3.08112 29.3255 3.09831 28.3929C3.11795 27.3487 3.10813 26.3038 3.10895 25.2596C3.10895 19.8466 3.10895 14.4345 3.10895 9.0215C3.10895 8.5882 3.32751 8.37128 3.76463 8.37074C4.67816 8.37074 5.59169 8.38214 6.50522 8.36585C6.8613 8.35933 6.97836 8.48965 6.97754 8.8415C6.96935 15.4346 6.98736 22.027 6.9628 28.6201C6.95216 31.5213 4.71909 33.6927 1.79841 33.7261C1.19921 33.7334 0.599197 33.7163 0 33.7098V30.1261Z" fill="#0D0D0D"/>
<path d="M50.8019 13.5492C51.4985 13.7936 52.114 14.0412 52.6453 14.4533C54.0041 15.508 54.6934 16.9383 54.9201 18.5949C55.1943 20.5944 54.7916 22.4661 53.6055 24.1219C52.3449 25.882 50.5939 26.8862 48.4386 27.0312C45.3894 27.2356 42.3304 27.0735 39.2763 27.1086C38.5674 27.1167 37.8577 27.1102 37.148 27.1086C36.5857 27.1077 36.5717 27.0947 36.5717 26.5425C36.5717 21.9139 36.5717 17.2852 36.5717 12.6566C36.5717 8.92385 36.5717 5.19113 36.5717 1.45841C36.5717 0.871174 36.5734 0.868731 37.1595 0.868731C40.5427 0.868731 43.9266 0.849183 47.309 0.881762C49.064 0.898052 50.7102 1.34438 52.128 2.43415C53.5842 3.55404 54.298 5.07629 54.5313 6.85836C54.6508 7.76975 54.6246 8.67463 54.402 9.56566C53.991 11.2068 52.9604 12.365 51.5026 13.1787C51.2922 13.2959 51.0769 13.4051 50.801 13.5509L50.8019 13.5492ZM40.6212 19.3092C40.6212 20.4617 40.6278 21.6141 40.6171 22.7666C40.6147 23.0663 40.6925 23.2146 41.0273 23.2129C43.1122 23.2015 45.1979 23.226 47.282 23.1893C48.171 23.1738 48.9953 22.8692 49.6771 22.2722C50.8559 21.2387 51.0974 19.9021 50.824 18.4515C50.5661 17.0808 49.6976 16.2028 48.3805 15.7499C47.7388 15.5292 47.0683 15.4966 46.4037 15.4885C44.6323 15.4665 42.86 15.4918 41.0886 15.473C40.6941 15.4689 40.6081 15.618 40.6131 15.9739C40.6302 17.0857 40.6196 18.1974 40.6196 19.3092H40.6212ZM40.6212 8.17291C40.6212 9.25779 40.6311 10.3419 40.6155 11.4267C40.6106 11.7607 40.7211 11.8779 41.06 11.8739C42.1774 11.8584 43.2947 11.8796 44.4121 11.8649C45.3641 11.8519 46.3185 11.935 47.2681 11.7908C48.2577 11.6409 49.1524 11.2842 49.768 10.4746C50.6791 9.27571 50.7601 7.92938 50.1855 6.58632C49.6321 5.29213 48.5049 4.68779 47.1502 4.56154C45.0988 4.37014 43.0385 4.51919 40.9822 4.47847C40.6826 4.47277 40.6171 4.61856 40.6188 4.88C40.6261 5.97791 40.6221 7.07582 40.6221 8.17454L40.6212 8.17291Z" fill="#0D0D0D"/>
<path d="M18.9984 19.2141C17.2254 19.2141 15.4524 19.2239 13.6793 19.2076C13.2782 19.2035 13.1661 19.3436 13.1808 19.7313C13.2618 21.8163 14.75 23.3858 16.8251 23.6212C18.5204 23.8134 19.9733 23.3133 21.2421 22.2284C21.5507 21.9646 21.7529 21.9084 22.0845 22.2219C22.7262 22.8271 23.4179 23.3809 24.1031 23.9405C24.3765 24.1636 24.3928 24.3184 24.1342 24.5863C22.3988 26.388 20.2811 27.2733 17.7804 27.2985C15.9975 27.3165 14.3129 26.9972 12.7953 26.0052C11.2572 25.0001 10.3281 23.5552 9.85084 21.8351C9.04782 18.9421 9.06747 16.0401 10.0317 13.1805C11.0648 10.1173 13.6147 8.21139 16.8628 8.15601C21.2544 8.08026 24.4166 11.2119 24.7465 15.2264C24.8422 16.3928 24.7653 17.5591 24.8087 18.7238C24.8226 19.0968 24.6924 19.2247 24.3167 19.2214C22.5437 19.2076 20.7706 19.2157 18.9976 19.2157L18.9984 19.2141ZM17.0486 16.0214C18.206 16.0214 19.3643 16.0214 20.5218 16.0214C20.7305 16.0214 20.9597 16.0401 20.9278 15.7224C20.8271 14.7052 20.5594 13.7457 19.8571 12.9663C18.8429 11.8415 17.0371 11.4717 15.5219 12.0761C14.0362 12.669 13.288 14.0674 13.1857 15.6516C13.1644 15.9855 13.3486 16.0254 13.6163 16.0238C14.7607 16.0173 15.9042 16.0214 17.0486 16.0214Z" fill="#0D0D0D"/>
<path d="M91.6792 19.2134C89.92 19.2134 88.1601 19.2134 86.401 19.2142C85.8902 19.2142 85.8435 19.2785 85.9139 19.7876C85.9991 20.409 86.1415 21.0109 86.4239 21.5786C87.2769 23.289 89.2308 23.8029 90.7583 23.649C92.0598 23.5178 93.1984 22.9941 94.148 22.0909C94.3232 21.9247 94.4533 21.9247 94.6342 22.0803C95.4086 22.7441 96.1887 23.4006 96.9737 24.0521C97.2267 24.2615 97.0597 24.3967 96.9164 24.5482C95.6034 25.9376 94.0113 26.8417 92.1204 27.1536C90.1738 27.4754 88.2583 27.3491 86.4386 26.5053C84.3799 25.5508 83.1512 23.8933 82.5709 21.7675C81.7842 18.8868 81.8071 15.9962 82.778 13.1545C83.8266 10.0856 86.4231 8.17809 89.6728 8.15284C93.6544 8.12189 96.8493 10.7412 97.4272 14.7281C97.6269 16.1029 97.4804 17.4924 97.5156 18.8745C97.5246 19.2288 97.2766 19.2117 97.0408 19.2117C95.2539 19.2125 93.4669 19.2117 91.6808 19.2125L91.6792 19.2134ZM89.7637 16.0206C90.9228 16.0206 92.0811 16.0206 93.2402 16.0206C93.2541 16.0206 93.268 16.019 93.2811 16.0206C93.5742 16.0548 93.6978 15.9693 93.656 15.6378C93.6085 15.2591 93.5472 14.8861 93.4416 14.522C92.9881 12.9599 91.8257 11.9874 90.218 11.8155C88.6177 11.6445 87.177 12.3694 86.4493 13.7181C86.1415 14.2883 86.0163 14.9097 85.9197 15.5442C85.8648 15.905 85.9516 16.0329 86.329 16.0272C87.4741 16.01 88.6193 16.0206 89.7645 16.0214L89.7637 16.0206Z" fill="#0D0D0D"/>
<path d="M76.2736 25.1145C75.7407 25.6985 75.2291 26.1538 74.6225 26.4958C70.7162 28.6941 65.3636 26.2833 65.1491 21.3068C64.9707 17.1579 65.1188 13.0041 65.0804 8.85276C65.0771 8.47647 65.2318 8.35919 65.5944 8.36652C66.535 8.38362 67.4771 8.38932 68.4177 8.36407C68.8343 8.35349 68.9539 8.49928 68.9522 8.9057C68.9391 12.434 68.9424 15.9623 68.9465 19.4906C68.9473 20.3311 69.0971 21.1423 69.5629 21.8615C70.4052 23.1638 71.6715 23.5923 73.1376 23.4057C75.1079 23.1549 76.258 21.7393 76.2678 19.6184C76.2842 16.0902 76.2736 12.5619 76.2744 9.03357C76.2744 8.59376 76.4891 8.37358 76.9186 8.37303C77.8051 8.37303 78.6916 8.37141 79.5781 8.37303C80.1176 8.37385 80.134 8.38769 80.134 8.9171C80.1356 11.0209 80.134 13.1238 80.134 15.2276C80.134 18.9734 80.134 22.7183 80.134 26.4641C80.134 27.1018 80.1258 27.1091 79.5045 27.11C78.577 27.1116 77.6496 27.1034 76.7221 27.1148C76.3898 27.1189 76.2556 26.9967 76.2687 26.6604C76.2883 26.1774 76.2736 25.6936 76.2736 25.1169V25.1145Z" fill="#0D0D0D"/>
<path d="M27.6681 17.546C27.6681 15.4056 27.6599 13.6544 27.6746 11.9041C27.6779 11.5222 27.5617 11.3544 27.1614 11.3829C26.8225 11.4073 26.4795 11.3853 26.139 11.3829C25.9049 11.3813 25.7878 11.2656 25.7878 11.031C25.7878 10.2573 25.7894 9.48353 25.7878 8.7106C25.7878 8.47114 25.904 8.36852 26.1414 8.37178C26.4959 8.37666 26.8519 8.35305 27.2048 8.37585C27.569 8.39947 27.6771 8.24798 27.6738 7.90101C27.6607 6.39424 27.6673 4.88828 27.6681 3.38151C27.6681 2.95527 27.876 2.74188 28.2918 2.74134C29.1923 2.74134 30.0927 2.75844 30.9923 2.73319C31.3991 2.72179 31.5432 2.84478 31.5375 3.2626C31.517 4.79625 31.5399 6.3299 31.5219 7.86355C31.517 8.24961 31.63 8.39703 32.0303 8.37829C32.6295 8.3506 33.2303 8.37829 33.8303 8.36933C34.1225 8.36445 34.2478 8.47196 34.2421 8.77576C34.2281 9.50878 34.229 10.2418 34.2421 10.974C34.247 11.2721 34.1283 11.3918 33.8344 11.3886C33.2074 11.3813 32.5795 11.3984 31.9517 11.3837C31.6308 11.3764 31.5244 11.5034 31.5252 11.817C31.5334 15.2777 31.5268 18.7392 31.5367 22.1999C31.5391 23.1007 31.9091 23.4387 32.8251 23.4452C33.1664 23.4476 33.507 23.4525 33.8483 23.4452C34.1176 23.4403 34.2445 23.5405 34.2412 23.8272C34.2306 24.7907 34.2355 25.7542 34.2388 26.7186C34.2388 26.9336 34.1978 27.1014 33.9359 27.1014C32.8472 27.1014 31.7511 27.191 30.6878 26.8595C28.9762 26.326 27.849 24.8803 27.7278 23.0974C27.5936 21.1174 27.7188 19.1358 27.6681 17.546Z" fill="#0D0D0D"/>
<path d="M57.0541 11.9798C57.0541 8.47838 57.0541 4.97697 57.0541 1.47556C57.0541 0.86959 57.0566 0.868775 57.6705 0.867961C58.5571 0.867961 59.4436 0.867146 60.3301 0.867961C60.9145 0.867961 60.9162 0.870404 60.917 1.4609C60.917 8.21938 60.935 14.9787 60.9023 21.7372C60.8957 23.1372 61.3599 23.4818 62.6344 23.4533C63.7591 23.428 63.6044 23.3368 63.615 24.4257C63.6216 25.1588 63.6003 25.8918 63.6232 26.624C63.6355 27.0052 63.4841 27.1184 63.1198 27.1143C62.1383 27.1029 61.1577 27.1298 60.1909 26.9001C58.3876 26.4709 57.2555 25.1327 57.1131 23.2969C57.0541 22.537 57.055 21.7795 57.055 21.0196C57.0533 18.0069 57.0541 14.9942 57.055 11.9806L57.0541 11.9798Z" fill="#0D0D0D"/>
<path d="M6.97458 2.80796C6.97458 3.30967 6.96722 3.81139 6.97786 4.31229C6.98359 4.58188 6.887 4.71382 6.60213 4.71219C5.56663 4.70649 4.53195 4.70731 3.49646 4.71056C3.21568 4.71138 3.11091 4.57618 3.11173 4.30903C3.11582 3.29257 3.11827 2.27611 3.11091 1.25965C3.10845 0.958293 3.24433 0.860557 3.53493 0.863815C4.5426 0.873588 5.55108 0.876032 6.55875 0.863C6.88863 0.858928 6.98686 1.00065 6.97868 1.30363C6.96558 1.80453 6.9754 2.30624 6.97458 2.80796Z" fill="#0D0D0D"/>
</svg>
