<svg width="208" height="21" viewBox="0 0 208 21" fill="none" xmlns="http://www.w3.org/2000/svg">
<path d="M189.318 5.72721V15.6453C189.318 18.0143 191.49 19.9727 194.133 19.9727C196.306 19.9727 198.007 18.804 198.623 17.1299L199.13 17.9195C200.035 19.2462 201.628 19.9727 203.257 19.9727C205.9 19.9727 208 18.1406 208 15.8033C208 15.0136 207.783 14.2555 207.276 13.5606L205.393 10.939C206.769 10.023 207.602 8.56998 207.602 6.80115C207.602 3.54775 204.633 1.02085 200.831 1.02085H194.568C191.165 1.02085 189.318 2.63175 189.318 5.72721ZM187.725 16.2139C187.725 14.4135 186.385 13.0552 184.539 12.7394C185.372 12.2656 185.879 11.4759 185.879 10.4336C185.879 9.39123 185.408 8.60157 184.539 8.12777C186.422 7.81191 187.725 6.48528 187.725 4.65328C187.725 2.63175 185.842 1.02085 183.561 1.02085H175.958C172.483 1.02085 170.6 2.63175 170.6 5.69563V15.1399C170.6 18.2354 172.483 19.8147 175.958 19.8147H183.561C185.879 19.8463 187.725 18.2354 187.725 16.2139ZM164.807 15.7085V9.17012C167.233 9.07536 169.224 7.30653 169.224 5.09549C169.224 2.82127 167.124 1.02085 164.554 1.02085H154.706C152.135 1.02085 150.035 2.78968 150.035 5.09549C150.035 7.30653 152.026 9.04378 154.452 9.17012V15.7085C154.452 18.0459 156.733 19.9727 159.557 19.9727C162.526 19.9727 164.807 18.0459 164.807 15.7085ZM130.774 5.72721V15.6453C130.774 18.0143 132.946 19.9727 135.589 19.9727C137.762 19.9727 139.463 18.804 140.079 17.1299L140.586 17.9195C141.491 19.2462 143.084 19.9727 144.713 19.9727C147.356 19.9727 149.456 18.1406 149.456 15.8033C149.456 15.0136 149.239 14.2555 148.732 13.5606L146.849 10.939C148.225 10.023 149.058 8.56998 149.058 6.80115C149.058 3.54775 146.089 1.02085 142.287 1.02085H136.06C132.62 1.02085 130.774 2.63175 130.774 5.72721ZM118.935 16.6561C120.166 18.8987 121.904 19.9727 124.04 19.9727C127.877 19.9727 130.593 16.9088 128.927 13.4659L124.474 4.369C123.388 2.12637 121.759 0.894501 118.971 0.894501C116.219 0.894501 114.59 2.12637 113.468 4.369L109.014 13.4659C107.313 16.9088 110.064 19.9727 113.866 19.9727C116.002 19.9727 117.704 18.9303 118.935 16.6561ZM106.227 15.7085V9.17012C108.652 9.07536 110.644 7.30653 110.644 5.09549C110.644 2.82127 108.544 1.02085 105.973 1.02085H96.1253C93.5548 1.02085 91.4548 2.78968 91.4548 5.09549C91.4548 7.30653 93.4461 9.04378 95.8719 9.17012V15.7085C95.8719 18.0459 98.1528 19.9727 100.977 19.9727C103.946 19.9727 106.227 18.0459 106.227 15.7085ZM91.2738 13.9397C91.2738 12.0445 90.1877 10.7179 88.5584 9.4544L87.2188 8.41205C89.1739 8.15936 90.4773 7.02225 90.4773 5.34818C90.4773 2.53699 87.9067 0.862915 82.4759 0.862915C77.1537 0.862915 74.0401 3.2003 74.0401 6.89591C74.0401 8.79109 75.1624 10.0861 76.7917 11.3812L78.0951 12.4235H78.0589C75.6331 12.4235 73.9314 13.6554 73.9314 15.5822C73.9314 18.3618 76.6106 20.0674 82.3311 20.0674C87.9429 20.0358 91.2738 17.6984 91.2738 13.9397ZM72.8091 15.6769C72.8091 14.7925 72.5194 13.9397 71.9039 13.1816L69.5868 10.3704L71.9039 7.55922C72.5194 6.83273 72.8091 5.94832 72.8091 5.0639C72.8091 2.72651 70.6005 0.926088 67.9937 0.926088C66.4731 0.926088 64.9525 1.5894 64.0112 2.72651L62.8526 4.11631C62.4181 2.25271 60.5716 0.894501 58.2183 0.894501C55.5029 0.894501 53.403 2.78968 53.403 5.12707V15.7085C53.403 18.0459 55.5391 19.9411 58.2183 19.9411C60.5354 19.9411 62.3457 18.6776 62.8164 16.8456L63.8301 18.1091C64.7715 19.3093 66.3283 19.9411 67.8489 19.9411C70.5643 19.9727 72.8091 18.0143 72.8091 15.6769ZM51.7375 14.7293C51.7375 12.7078 50.5789 11.2864 48.2618 10.4336C50.5789 9.58075 51.7375 8.19095 51.7375 6.13784C51.7375 3.07396 48.8049 0.894501 44.0982 0.894501C37.7984 0.894501 33.1642 4.96914 33.1642 10.4336C33.1642 15.898 37.7984 19.9727 44.0982 19.9727C48.8049 19.9727 51.7375 17.7932 51.7375 14.7293ZM26.2127 0.894501C23.3163 0.894501 20.9991 2.9792 20.9991 5.44293V15.361C20.9991 17.8564 23.3163 19.9095 26.1765 19.9095C29.1091 19.9095 31.3901 17.8248 31.3901 15.361V5.47452C31.4263 2.9792 29.1453 0.894501 26.2127 0.894501ZM19.3699 15.6769C19.3699 14.7925 19.0802 13.9397 18.4648 13.1816L16.1476 10.3704L18.4648 7.55922C19.0802 6.83273 19.3699 5.94832 19.3699 5.0639C19.3699 2.72651 17.1614 0.926088 14.5546 0.926088C13.0339 0.926088 11.5133 1.5894 10.572 2.72651L9.4134 4.11631C9.01515 2.25271 7.16867 0.894501 4.81532 0.894501C2.09991 0.894501 0 2.82127 0 5.15866V15.7401C0 18.0775 2.13612 19.9727 4.81532 19.9727C7.13246 19.9727 8.94273 18.7092 9.4134 16.8772L10.4272 18.1406C11.3685 19.3409 12.9253 19.9727 14.446 19.9727C17.1614 19.9727 19.3699 18.0143 19.3699 15.6769Z" fill="#0D0D0D"/>
</svg>
