<svg xmlns="http://www.w3.org/2000/svg" width="143" height="52" fill="none"><g fill="#fff" clip-path="url(#a)"><path d="M59.616 26.307c0-8.599 6.662-15.106 15.523-15.106 5.814 0 10.667 2.771 13.32 7.187l-7.169 4.356c-1.187-2.151-3.444-3.564-6.15-3.564-4.063 0-7.057 3.055-7.057 7.13 0 4.073 2.99 7.128 7.056 7.128 2.71 0 4.968-1.412 6.151-3.564l7.17 4.357c-2.654 4.413-7.507 7.184-13.32 7.184-8.862 0-15.524-6.507-15.524-15.106v-.002ZM43.618 11.201c-8.75 0-15.353 6.223-15.353 14.937 0 8.714 6.884 15.277 16.03 15.277 5.307 0 9.934-2.147 12.982-5.6l-5.533-4.807c-1.355 1.699-3.95 3.226-7.224 3.226-3.613 0-6.377-1.979-7.395-5.204h21.448l.005-.006c.111-.735.169-1.81.169-2.602 0-8.768-6.377-15.22-15.127-15.22h-.002Zm-6.552 12.337h-.002c.848-3.168 3.329-5.204 6.434-5.204s5.59 1.978 6.491 5.204H37.066ZM27.19 51.545h-.007v.007l.007-.007Z"/><path d="M27.882 14.94h3.479V7.3h-3.873c-3.951 0-6.829 1.978-7.675 5.09a15.97 15.97 0 0 0-6.04-1.189C5.984 11.203.17 16.636.17 23.933c0 3.564 1.412 6.732 3.782 8.995C1.524 34.4 0 37.34 0 40.397c0 4.807 3.67 8.032 9.258 8.032h8.972c2.315 0 3.894 1.246 4.12 3.113h9.006c-.004-6.314-5.086-11.084-11.55-11.084h-8.972c-1.524 0-2.596-.85-2.596-2.151 0-.849.451-1.641 1.298-2.206 1.355.396 2.768.566 4.234.566 7.79 0 13.66-5.434 13.66-12.73 0-2.775-.844-5.206-2.256-7.242.283-1.077 1.355-1.754 2.71-1.754l-.002-.002Zm-14.11 13.914c-2.937 0-5.136-2.094-5.136-4.922 0-2.829 2.203-4.922 5.136-4.922 2.933 0 5.192 2.093 5.192 4.922 0 2.828-2.256 4.922-5.192 4.922ZM99.697 31.46l-2.145 2.32v6.958h-8.24V0h8.24v22.63l9.483-10.75h10.667l-12.191 13.297 12.587 15.56h-10.835l-7.564-9.278h-.002Z"/><path d="M127.479 11.02c-8.861 0-15.523 6.507-15.523 15.106s6.662 15.106 15.523 15.106c8.862 0 15.524-6.507 15.524-15.106 0-8.6-6.662-15.107-15.524-15.107Zm-.001 22.235c-4.066 0-7.057-3.055-7.057-7.13 0-4.073 2.991-7.128 7.057-7.128 4.066 0 7.056 3.055 7.056 7.129s-2.992 7.129-7.056 7.129Z"/></g><defs><clipPath id="a"><path fill="#fff" d="M0 0h143v51.551H0z"/></clipPath></defs></svg>