<svg width="170" height="25" viewBox="0 0 170 25" fill="none" xmlns="http://www.w3.org/2000/svg">
<path d="M158.191 2.99931H154.687V19.0203H158.191V7.56617C159.08 6.25783 160.659 5.34446 162.461 5.34446C164.867 5.34446 166.496 6.8256 166.496 9.23246V19.0203H170V8.54126C170 5.13463 167.532 2.72777 163.744 2.72777C161.399 2.72777 159.437 3.70286 158.191 5.36914V2.99931V2.99931ZM144.211 5.19634C146.679 5.19634 148.394 6.6528 148.924 9.25714H139.583C140.089 6.67749 141.817 5.19634 144.211 5.19634ZM144.272 19.3413C148.159 19.3413 151.01 17.2923 152.046 13.8857H148.603C147.838 15.7865 146.284 16.8233 144.297 16.8233C141.508 16.8233 139.608 14.8978 139.435 11.6023H152.49V10.9481C152.49 5.66537 148.875 2.70309 144.272 2.70309C139.435 2.70309 135.906 5.91223 135.906 11.0345C135.906 16.1074 139.386 19.3413 144.272 19.3413ZM125.529 5.19634C127.997 5.19634 129.712 6.6528 130.242 9.25714H120.902C121.407 6.67749 123.123 5.19634 125.529 5.19634ZM125.59 19.3413C129.477 19.3413 132.328 17.2923 133.364 13.8857H129.922C129.144 15.7865 127.602 16.8233 125.615 16.8233C122.826 16.8233 120.926 14.8978 120.753 11.6023H133.809V10.9481C133.809 5.66537 130.193 2.70309 125.59 2.70309C120.753 2.70309 117.224 5.91223 117.224 11.0345C117.224 16.1074 120.692 19.3413 125.59 19.3413ZM111.227 2.99931H107.723V19.0203H111.227V8.07223C112.264 6.25783 114.485 5.55429 116.681 5.91223V2.70309C114.214 2.57966 112.375 3.65349 111.227 5.66537V2.99931ZM96.7039 14.0585C94.0386 14.0585 92.0767 12.5157 92.0767 9.72617C92.0767 6.85029 94.0016 5.2704 96.7039 5.2704C99.4063 5.2704 101.331 6.83794 101.331 9.72617C101.331 12.5157 99.3692 14.0585 96.7039 14.0585ZM92.3975 19.0203H89.0412C89.8679 22.8713 93.1378 24.6857 97.5307 24.6857C101.923 24.6857 104.86 22.6738 104.86 19.6128C104.86 17.2059 103.108 16.1074 100.443 15.3669C103.17 14.6016 104.712 12.4539 104.712 9.63977C104.712 8.09691 104.182 6.72686 103.256 5.62834C104.021 5.45554 104.823 5.41851 105.625 5.56663V2.60434C103.935 2.54263 102.664 3.1104 101.677 4.20891C100.282 3.2832 98.5302 2.75246 96.6669 2.75246C92.0149 2.75246 88.6833 5.60366 88.6833 9.63977C88.6833 14.9472 93.1378 16.1938 97.4073 17.1813C100.764 17.9465 101.467 18.7241 101.467 19.8473C101.467 21.1186 100.492 22.1925 97.4566 22.1925C94.8654 22.1925 93.0761 21.2421 92.3975 19.0203ZM82.674 14.5029V5.60366H87.7208V2.99931H82.674V0H79.2067V2.99931H75.147V5.616H79.2067V15.1447C79.2067 17.8107 80.6257 19.1561 84.1918 19.1561C85.2653 19.1561 86.3882 19.0327 87.7208 18.6871V16.1321C86.5609 16.4283 85.6725 16.5147 84.9568 16.5147C82.9702 16.5024 82.674 15.7865 82.674 14.5029ZM66.4971 5.19634C68.9649 5.19634 70.6801 6.6528 71.2107 9.25714H61.8698C62.3757 6.67749 64.1032 5.19634 66.4971 5.19634ZM66.5588 19.3413C70.4457 19.3413 73.2961 17.2923 74.3326 13.8857H70.8899C70.1248 15.7865 68.5824 16.8233 66.5834 16.8233C63.7947 16.8233 61.8945 14.8978 61.7217 11.6023H74.7768V10.9481C74.7768 5.66537 71.1614 2.70309 66.5588 2.70309C61.7217 2.70309 58.1926 5.91223 58.1926 11.0345C58.1926 16.1074 61.6723 19.3413 66.5588 19.3413ZM47.8152 5.19634C50.2831 5.19634 51.9983 6.6528 52.5289 9.25714H43.1879C43.6938 6.67749 45.409 5.19634 47.8152 5.19634ZM47.8769 19.3413C51.7638 19.3413 54.6142 17.2923 55.6507 13.8857H52.208C51.443 15.7865 49.8882 16.8233 47.9016 16.8233C45.1129 16.8233 43.2126 14.8978 43.0398 11.6023H56.0949V10.9481C56.0949 5.66537 52.4795 2.70309 47.8769 2.70309C43.0398 2.70309 39.5108 5.91223 39.5108 11.0345C39.5108 16.1074 42.9782 19.3413 47.8769 19.3413ZM30.9102 19.0203H34.464L38.9432 2.99931H35.7102L32.6501 14.8731L29.1827 2.99931H26.0978L22.6922 14.688L19.669 2.99931H16.2263L20.7302 19.0203H24.284L27.5786 7.44274L30.9102 19.0203ZM8.27974 19.3413C12.5245 19.3413 15.486 17.2677 15.486 14.3301C15.486 7.98583 3.61545 10.7383 3.61545 7.12183C3.61545 5.93691 4.86173 5.10994 7.20621 5.10994C9.76047 5.10994 11.3893 6.12206 12.0062 8.31909H15.3009C14.5605 4.69029 11.6237 2.66606 7.24323 2.66606C2.9121 2.66606 0.246788 4.59154 0.246788 7.50446C0.246788 13.6759 12.1173 10.8247 12.1173 14.688C12.1173 15.9346 10.9327 16.9097 8.2674 16.9097C5.60209 16.9097 3.91159 15.7495 3.34398 13.355H0C0.740364 17.3541 3.80054 19.3413 8.27974 19.3413Z" fill="white"/>
</svg>
