<svg width="150" height="33" viewBox="0 0 150 33" fill="none" xmlns="http://www.w3.org/2000/svg">
<path d="M0 0.862915H15.1675C15.1666 5.90355 15.1675 10.9442 15.1666 15.9848H0V0.862915Z" fill="#0D0D0D"/>
<path d="M16.716 0.862915H31.8835C31.8835 5.90355 31.8844 10.9442 31.8835 15.9848C26.8285 15.9848 21.7727 15.9848 16.7178 15.9848C16.716 10.9442 16.716 5.90355 16.716 0.862915Z" fill="#0D0D0D"/>
<path d="M136.778 6.62468C138.176 5.71737 139.982 5.6329 141.558 6.06522C141.572 6.99887 141.56 7.93343 141.565 8.86799C140.816 8.53921 139.935 8.32487 139.147 8.64729C138.522 8.89433 138.151 9.53372 138.053 10.1731C137.936 10.9841 138.012 11.8061 137.992 12.6217C139.592 12.6253 141.191 12.6217 142.791 12.6235C142.803 11.5881 142.778 10.5518 142.805 9.51646C143.892 9.20767 144.968 8.86163 146.05 8.53649C146.059 9.90064 146.038 11.2657 146.062 12.6308C147.144 12.6153 148.226 12.6271 149.308 12.6235V15.2791C148.222 15.2346 147.135 15.2673 146.049 15.2637C146.054 16.7904 146.05 18.3171 146.051 19.8448C146.069 20.6903 146.006 21.5404 146.105 22.3833C146.165 22.8801 146.346 23.4304 146.814 23.6875C147.596 24.1243 148.589 23.9336 149.308 23.454V26.136C148.371 26.542 147.323 26.6655 146.309 26.5938C145.347 26.5229 144.351 26.1742 143.723 25.4113C142.998 24.5494 142.811 23.3823 142.796 22.2906C142.788 19.9474 142.797 17.6042 142.793 15.2601C141.192 15.2592 139.592 15.2582 137.992 15.2601C137.99 18.9375 137.991 22.6148 137.991 26.2922H134.711C134.711 22.6158 134.706 18.9402 134.713 15.2637C133.952 15.2492 133.19 15.2673 132.43 15.2519C132.432 14.3791 132.436 13.5054 132.428 12.6317C133.185 12.6144 133.943 12.6217 134.702 12.6271C134.757 11.4664 134.58 10.2721 134.928 9.14137C135.222 8.12052 135.876 7.20049 136.778 6.62468Z" fill="#0D0D0D"/>
<path d="M66.5422 6.81577C67.2036 6.71587 67.9196 6.94111 68.3578 7.45698C68.8716 8.02189 68.9663 8.92103 68.5855 9.58131C68.1647 10.3261 67.2227 10.6721 66.402 10.4932C65.5502 10.3406 64.8406 9.55134 64.8788 8.67127C64.8542 7.74488 65.6313 6.91931 66.5422 6.81577Z" fill="#0D0D0D"/>
<path d="M41.4016 7.22074H46.1723C47.6572 10.9799 49.153 14.7354 50.6397 18.4945C51.0195 19.4345 51.3748 20.3854 51.7729 21.3182C53.6832 16.6208 55.6208 11.9353 57.5165 7.23164C59.046 7.20712 60.5764 7.22619 62.1068 7.22256C62.1032 13.5792 62.105 19.9359 62.1068 26.2925C61.0028 26.2898 59.8996 26.3016 58.7964 26.2862C58.8083 21.5952 58.7955 16.9042 58.8019 12.2123C58.8037 12.0016 58.7964 11.7909 58.7818 11.5802C58.7172 11.6783 58.6598 11.78 58.6097 11.8854C56.714 16.6871 54.7818 21.4753 52.897 26.2816C52.1118 26.3098 51.3256 26.2834 50.5395 26.2961C48.5836 21.4944 46.6524 16.6817 44.7066 11.8763C44.6556 11.7764 44.6009 11.6792 44.5417 11.5857C44.5016 13.641 44.5353 15.6981 44.5244 17.7534C44.5253 20.5998 44.5226 23.4461 44.5253 26.2925C43.4841 26.2952 42.4429 26.2925 41.4026 26.2934C41.4026 19.9359 41.3998 13.5783 41.4016 7.22074Z" fill="#0D0D0D"/>
<path d="M75.5703 12.6106C77.1536 12.161 78.8607 12.1792 80.4431 12.6251C80.7692 12.716 81.0853 12.8422 81.3786 13.0139C81.3604 14.0556 81.3786 15.0982 81.3686 16.1409C80.311 15.3353 78.9691 14.8249 77.6245 14.9938C76.5569 15.0901 75.5384 15.6423 74.8999 16.5023C74.0791 17.5686 73.8896 18.9845 74.0308 20.2887C74.1365 21.3096 74.5601 22.3295 75.3563 23.0061C76.1834 23.7391 77.3431 23.9988 78.4253 23.9171C79.4947 23.7945 80.5041 23.3431 81.3686 22.7128C81.3777 23.7 81.364 24.6872 81.3759 25.6745C80.0349 26.4701 78.4271 26.6753 76.8921 26.6C75.3216 26.5173 73.7557 25.9242 72.6188 24.8235C71.3836 23.6364 70.7131 21.9435 70.6338 20.2479C70.5537 18.485 70.9135 16.6458 71.931 15.1736C72.7837 13.9175 74.1174 13.0284 75.5703 12.6106Z" fill="#0D0D0D"/>
<path d="M111.405 12.4022C112.921 12.1361 114.509 12.3313 115.945 12.8735C115.947 13.8762 115.945 14.878 115.946 15.8798C114.943 15.1922 113.718 14.8226 112.501 14.8653C111.888 14.8889 111.213 15.1477 110.934 15.729C110.711 16.3039 110.865 17.0577 111.409 17.4019C112.339 18.0223 113.449 18.2856 114.413 18.8415C115.172 19.2665 115.908 19.8224 116.292 20.6234C117.014 22.1238 116.708 24.1064 115.438 25.2254C114.226 26.3552 112.48 26.6676 110.874 26.6077C109.733 26.5341 108.587 26.3098 107.539 25.8448C107.543 24.7903 107.532 23.7368 107.544 22.6833C108.426 23.3217 109.443 23.7786 110.52 23.9639C111.27 24.0856 112.085 24.091 112.784 23.7568C113.453 23.4253 113.573 22.478 113.176 21.8986C112.804 21.4517 112.258 21.2056 111.744 20.964C110.777 20.5308 109.761 20.1684 108.912 19.519C108.316 19.0549 107.864 18.401 107.687 17.6635C107.425 16.5764 107.507 15.3512 108.141 14.4012C108.865 13.2941 110.123 12.6301 111.405 12.4022Z" fill="#0D0D0D"/>
<path d="M88.7126 12.8331C89.6181 12.2909 90.7686 12.2455 91.757 12.577C91.7525 13.6677 91.757 14.7585 91.7543 15.8493C91.1075 15.4315 90.3004 15.2526 89.537 15.3298C88.606 15.4351 87.8681 16.1481 87.4855 16.9655C87.0701 17.831 86.9918 18.8101 87.0182 19.7565C87.0182 21.9353 87.0191 24.1141 87.0182 26.293H83.7843C83.7816 21.7391 83.7879 17.1844 83.7816 12.6306C84.8611 12.6169 85.9405 12.6224 87.02 12.6278C87.0155 13.4098 87.02 14.1918 87.0173 14.9747C87.368 14.1237 87.89 13.2972 88.7126 12.8331Z" fill="#0D0D0D"/>
<path d="M65.1787 12.6282C66.2664 12.6237 67.355 12.6128 68.4427 12.6337C68.4299 17.1866 68.4418 21.7404 68.4372 26.2933H65.1805C65.1778 21.7386 65.1805 17.1838 65.1787 12.6282Z" fill="#0D0D0D"/>
<path d="M102.49 12.9279C101.029 12.2649 99.3681 12.1759 97.7939 12.3757C96.1406 12.5836 94.5309 13.3593 93.4815 14.6735C92.5231 15.8469 92.0567 17.3545 91.9674 18.8504C91.8353 20.6132 92.1305 22.4842 93.169 23.9555C94.0535 25.2252 95.45 26.098 96.9586 26.4195C98.2194 26.6838 99.5384 26.6847 100.799 26.4231C102.274 26.1207 103.651 25.3069 104.565 24.1063C105.458 22.9755 105.906 21.5496 106.007 20.1264C106.11 18.6687 105.963 17.1593 105.355 15.8151C104.786 14.5527 103.758 13.4982 102.49 12.9279ZM102.187 22.0891C101.873 22.7921 101.299 23.386 100.575 23.6676C99.7279 23.9918 98.7759 24.0109 97.9014 23.7848C97.0114 23.5513 96.2562 22.9101 95.8454 22.0936C95.317 21.0419 95.2378 19.8258 95.3471 18.6724C95.4464 17.6234 95.8126 16.5444 96.6142 15.8205C97.1954 15.2792 97.988 15.015 98.7723 14.9714C99.758 14.9069 100.807 15.1848 101.516 15.8996C102.274 16.6425 102.567 17.7206 102.648 18.7487C102.707 19.8739 102.66 21.0465 102.187 22.0891Z" fill="#0D0D0D"/>
<path d="M131.628 16.21C131.123 14.8531 130.113 13.6797 128.81 13.0303C127.316 12.2783 125.578 12.1684 123.941 12.3709C122.621 12.5399 121.324 13.0394 120.316 13.9213C119.087 14.9775 118.365 16.5306 118.153 18.1191C117.951 19.7075 118.019 21.3805 118.668 22.8673C119.291 24.3259 120.521 25.5102 122.001 26.0905C123.461 26.6636 125.084 26.7281 126.621 26.4802C128.192 26.2213 129.681 25.3976 130.654 24.1297C131.693 22.82 132.141 21.1253 132.138 19.4741C132.161 18.3688 132.022 17.2481 131.628 16.21ZM128.669 20.8437C128.543 21.563 128.294 22.2805 127.821 22.85C127.344 23.4222 126.636 23.7709 125.904 23.8781C125.119 23.9953 124.292 23.939 123.558 23.6238C122.765 23.2896 122.151 22.6057 121.828 21.8192C121.439 20.8819 121.361 19.8438 121.439 18.8411C121.513 17.8702 121.789 16.8739 122.432 16.1192C123.019 15.4144 123.919 15.0248 124.826 14.9739C125.753 14.9094 126.742 15.1228 127.455 15.7468C128.111 16.2899 128.475 17.1037 128.642 17.9229C128.829 18.8838 128.827 19.8783 128.669 20.8437Z" fill="#0D0D0D"/>
<path d="M0 17.5277C5.05583 17.5295 10.1117 17.5268 15.1675 17.5295C15.1675 22.5702 15.1675 27.6099 15.1675 32.6505H0V17.5277Z" fill="#0D0D0D"/>
<path d="M16.7169 17.5298C21.7718 17.528 26.8276 17.5298 31.8835 17.5298V32.6517H16.716C16.7169 27.6111 16.716 22.5696 16.7169 17.5298Z" fill="#0D0D0D"/>
</svg>
