<svg width="208" height="38" viewBox="0 0 208 38" fill="none" xmlns="http://www.w3.org/2000/svg">
<path d="M0 0V37.7442H26.4195V0H0ZM22.6446 33.9693H3.77492V3.77492H22.6446V33.9693Z" fill="#0D0D0D"/>
<path d="M43.8235 25.5264H42.1916C40.0586 22.5105 37.9404 19.5143 35.8223 16.1263H35.8025V25.5264H34.0068V12.4159H35.6338C37.7718 15.412 39.8849 18.3933 41.9832 21.7614H42.0229V12.4159H43.8235V25.5264Z" fill="#0D0D0D"/>
<path d="M48.0929 20.3427C48.6187 18.6165 49.1396 17.0242 49.6108 15.0003H49.6505C50.1763 17.0242 50.6426 18.6165 51.1287 20.3427H48.0929ZM48.956 12.4159L44.4222 25.5264H46.3716L47.5125 21.9499H51.466L52.4978 25.5264H55.0078L50.8311 12.4159H48.956Z" fill="#0D0D0D"/>
<path d="M57.1234 25.5264V14.1769H53.6759V12.4159H62.818V14.1769H59.3705V25.5264H57.1234Z" fill="#0D0D0D"/>
<path d="M63.5475 25.5264V12.4159H65.7748V25.5264H63.5475Z" fill="#0D0D0D"/>
<path d="M72.7013 23.8798C70.36 23.8798 69.5365 21.2954 69.5365 18.7854C69.5365 16.2754 70.474 14.063 72.7013 14.063C74.9285 14.063 75.8661 16.3647 75.8661 18.7854C75.8661 21.2061 75.0426 23.8798 72.7013 23.8798ZM72.7013 25.7549C76.129 25.7549 78.2669 22.7042 78.2669 18.7854C78.2669 15.1147 75.9058 12.1929 72.7013 12.1929C69.4968 12.1929 67.1406 15.1147 67.1406 18.7854C67.1406 22.6992 69.2736 25.7549 72.7013 25.7549Z" fill="#0D0D0D"/>
<path d="M89.4498 25.5264H87.8178C85.6799 22.5105 83.5667 19.5143 81.4486 16.1263H81.4287V25.5264H79.6331V12.4159H81.2651C83.3981 15.412 85.5162 18.3933 87.6145 21.7614H87.6492V12.4159H89.4498V25.5264Z" fill="#0D0D0D"/>
<path d="M93.7201 20.3427C94.2459 18.6165 94.7667 17.0242 95.238 15.0003H95.2776C95.8035 17.0242 96.2697 18.6165 96.7559 20.3427H93.7201ZM94.5832 12.4159L90.0493 25.5264H91.9988L93.1397 21.9499H97.0932L98.125 25.5264H100.635L96.4582 12.4159H94.5832Z" fill="#0D0D0D"/>
<path d="M101.29 12.4159H103.517V23.7655H107.956V25.5264H101.29V12.4159Z" fill="#0D0D0D"/>
<path d="M122.153 19.4949V24.9068C120.953 25.378 119.698 25.7104 118.428 25.7104C114.569 25.7104 112.133 22.7143 112.133 18.855C112.133 15.2785 114.569 12.1485 118.502 12.1485C119.722 12.1485 120.938 12.5949 121.687 13.1604L120.958 14.718C120.357 14.341 119.42 14.0235 118.562 14.0235C116.166 14.0235 114.534 15.9134 114.534 18.8947C114.534 21.8759 116.409 23.8403 118.334 23.8403C118.934 23.8403 119.44 23.7659 119.906 23.5228V19.4949H122.153Z" fill="#0D0D0D"/>
<path d="M130.185 14.1379H126.44V17.7342H130.111V19.4952H126.44V23.7314H130.86V25.4924H124.193V12.3769H130.185V14.1379Z" fill="#0D0D0D"/>
<path d="M137.12 23.8404C134.778 23.8404 133.955 21.256 133.955 18.746C133.955 16.236 134.893 14.0236 137.12 14.0236C139.347 14.0236 140.285 16.3253 140.285 18.746C140.285 21.1667 139.461 23.8404 137.12 23.8404ZM137.12 25.7154C140.547 25.7154 142.68 22.6648 142.68 18.746C142.68 15.0752 140.319 12.1535 137.12 12.1535C133.92 12.1535 131.554 15.0752 131.554 18.746C131.554 22.6598 133.692 25.7154 137.12 25.7154Z" fill="#0D0D0D"/>
<path d="M153.47 19.495V24.9068C152.269 25.3781 151.014 25.7104 149.739 25.7104C145.88 25.7104 143.445 22.7143 143.445 18.8551C143.445 15.2786 145.88 12.1485 149.814 12.1485C151.034 12.1485 152.249 12.5949 152.998 13.1604L152.269 14.718C151.669 14.341 150.736 14.0236 149.873 14.0236C147.477 14.0236 145.845 15.9135 145.845 18.8947C145.845 21.876 147.72 23.8403 149.645 23.8403C150.245 23.8403 150.751 23.7659 151.218 23.5229V19.495H153.47Z" fill="#0D0D0D"/>
<path d="M158.771 14.1378C160.101 14.1378 160.85 14.9067 160.85 16.256C160.85 18.0169 159.783 18.8056 158.712 18.8602C158.488 18.8801 157.963 18.8949 157.774 18.9148V14.1378H158.771ZM163.474 25.4874L160.83 20.0557C162.273 19.2868 163.097 17.7342 163.097 16.1568C163.097 13.6071 161.544 12.3719 159.034 12.3719H155.532V25.4824H157.779V20.5369H158.791L160.909 25.4824H163.474V25.4874Z" fill="#0D0D0D"/>
<path d="M167.18 20.2988C167.701 18.5775 168.227 16.9852 168.698 14.9613H168.738C169.264 16.9852 169.73 18.5775 170.216 20.2988H167.18ZM168.043 12.3769L163.509 25.4874H165.459L166.6 21.9109H170.553L171.585 25.4874H174.095L169.918 12.3769H168.043Z" fill="#0D0D0D"/>
<path d="M178.304 12.3769H174.802V25.4874H177.049V20.5418H178.061C180.74 20.5418 182.372 18.3691 182.372 16.1568C182.372 13.6071 180.819 12.3719 178.304 12.3719V12.3769ZM177.987 18.8602C177.758 18.8751 177.208 18.8949 177.049 18.9098V14.1378H178.061C179.371 14.1378 180.12 14.9067 180.12 16.256C180.12 18.0169 179.053 18.8056 177.987 18.8602Z" fill="#0D0D0D"/>
<path d="M192.784 25.4874H190.537V19.1777H185.874V25.4874H183.647V12.3769H185.874V17.4118H190.537V12.4116H192.784V25.4874Z" fill="#0D0D0D"/>
<path d="M194.938 25.4874V12.3769H197.17V25.4874H194.938Z" fill="#0D0D0D"/>
<path d="M207.286 14.7574C206.745 14.42 205.847 14.0282 204.984 14.0282C202.697 14.0282 201.031 15.9181 201.031 18.8993C201.031 21.8806 202.866 23.8449 205.039 23.8449C205.902 23.8449 206.705 23.5622 207.286 23.1902L207.906 24.8222C207.231 25.2884 206.031 25.72 204.949 25.72C201.09 25.72 198.654 22.7239 198.654 18.8646C198.654 15.2881 201.07 12.1581 204.984 12.1581C206.145 12.1581 207.231 12.6442 208 13.17L207.286 14.7623V14.7574Z" fill="#0D0D0D"/>
</svg>
