<svg width="208" height="31" viewBox="0 0 208 31" fill="none" xmlns="http://www.w3.org/2000/svg">
<path d="M5.94432 17.4827V9.42391L3.5888 10.5035C3.5888 10.5035 2.98747 11.8869 3.09422 13.8962C3.17606 15.4662 4.03002 17.34 4.68472 18.1269L5.94432 17.4791M12.8436 0.892977C13.4236 0.944214 14.338 1.24066 15.0248 1.85916C15.7542 2.58745 15.9214 3.69636 15.6652 4.7028C15.4375 5.59945 15.1813 6.06424 14.2918 6.68274C13.3916 7.3049 12.3063 7.25367 12.3063 7.25367V11.1367L14.1423 12.6665L12.3063 14.1889V19.4773C12.3063 19.4773 14.1459 18.394 15.2881 15.9639C15.2881 15.9639 15.3343 15.8322 15.4411 15.5797C15.5443 16.2311 15.4838 17.5486 14.7686 19.2394C14.2277 20.513 13.2492 21.7391 12.0181 22.4381C9.83696 23.6824 8.20376 23.7995 6.44958 23.4262C4.39651 22.9907 2.53203 21.8049 1.26176 19.7372C0.368658 18.2879 -0.0334157 16.5897 0.00216605 14.7672C0.0733295 11.1879 2.66368 8.09907 5.65255 6.94624C6.01548 6.80717 6.16136 6.71202 6.6773 6.66444C6.4389 6.83279 6.16492 7.04506 5.8269 7.27562C4.86263 7.92706 4.04069 9.22262 3.68843 10.2181L9.49181 7.55743V15.9017L4.81282 18.3135C5.34654 19.0747 6.96551 20.2239 8.3532 20.3886C10.7087 20.6558 12.0928 19.5981 12.0928 19.5981V14.1926L10.2639 12.6701L12.0928 11.144V7.25732C11.0966 7.14021 9.88677 6.79985 9.1787 6.62052C8.13971 6.35702 4.66693 5.35424 4.12253 5.27007C3.57813 5.18589 2.90564 5.21151 2.5 5.58481C2.09437 5.96176 1.84174 6.62418 2.01253 7.22439C2.1086 7.56109 2.33633 7.75871 2.50712 7.95268C2.50712 7.95268 2.30786 7.93438 1.94493 7.71114C1.29022 7.30856 0.79208 6.51439 0.731592 5.54089C0.653312 4.26363 1.16569 3.1108 2.19044 2.33859C3.07999 1.74936 4.08695 1.37241 5.26115 1.54442C6.96907 1.79328 9.26765 2.78874 11.3136 3.29379C12.1071 3.49142 12.7191 3.55729 13.2777 3.22425C13.5375 3.03028 13.9929 2.53622 13.6193 1.8738C13.1852 1.10158 12.349 1.11988 11.641 0.980811C12.2494 0.849059 12.3846 0.849059 12.8401 0.892977H12.8436Z" fill="#0D0D0D"/>
<path d="M35.42 15.3816L32.7834 17.3689V10.7593L35.42 15.3816ZM35.3453 9.03192C35.3453 9.03192 33.5662 10.1408 32.3707 10.8728C31.1751 11.6011 29.5704 12.4062 29.5704 12.4062V20.0954L28.5029 20.9774L28.6453 21.1494L29.6878 20.2857L32.9578 23.327L38.6402 18.6974L38.505 18.529L35.3631 21.0653L32.7834 18.5803V17.6544L37.9677 13.7311L35.3418 9.03924L35.3453 9.03192Z" fill="#0D0D0D"/>
<path d="M20.45 26.215C21.1972 26.4053 22.5137 26.5077 24.1007 25.6916C25.8584 24.7876 26.7408 22.8663 26.7302 20.8973L26.8049 18.1086V12.0187L27.9293 11.1367L27.7976 10.9647L26.691 11.8211L24.1398 8.90423L20.8663 11.7954V1.96895L16.778 5.21883C16.9594 5.33595 17.5394 5.44574 17.5572 6.28749V20.0482L15.8244 21.3694L15.9418 21.5524L16.778 20.9119L19.105 23.1407L22.7699 20.1397L22.6383 19.9677L21.7772 20.6704L20.8663 19.7408L20.8734 12.0736L21.9409 11.1367L23.5349 13.1715C23.5349 13.1715 23.5349 18.1378 23.5349 19.7847C23.5242 21.5414 23.5171 23.7336 22.6205 24.7913C21.7238 25.8563 21.3644 25.9368 20.45 26.215Z" fill="#0D0D0D"/>
<path d="M45.8958 25.5234C44.4298 25.3514 43.8178 24.4401 43.8321 23.7191C43.8428 23.258 44.2519 22.354 45.1415 22.2296C46.031 22.1015 46.9419 22.5333 47.7105 23.4593L51.0943 19.6165L50.9306 19.4664L50.0233 20.5131C49.1017 19.4335 47.7888 18.7528 46.4865 18.5552V6.83656L55.2716 23.2982C55.2716 23.2982 55.357 23.4885 55.7164 23.4885C56.0259 23.4885 55.9512 23.2287 55.9512 23.2287V6.66089C56.6629 6.63161 57.7552 6.22537 58.2818 5.66909C59.972 3.87946 59.2817 1.9288 59.0966 1.74215C58.9935 2.59488 58.3565 3.45127 57.2926 3.45493C55.8978 3.45859 55.0474 2.40091 55.0474 2.40091L51.6672 6.36445L51.8273 6.5145L52.7951 5.37631C53.9764 6.4962 54.8411 6.60233 55.7342 6.66455V16.2788L49.2156 4.09905C48.6249 3.09261 47.7283 2.2106 46.3192 2.19596C44.7003 2.18864 43.5403 3.65621 43.4015 4.91884C43.245 6.34615 43.4193 6.67553 43.4193 6.67553C43.4193 6.67553 43.6577 5.08353 44.6149 5.09816C45.476 5.1128 45.9207 5.92527 46.2659 6.53646V10.0645C45.3799 10.1267 43.0706 10.2328 42.9319 12.6995C42.9212 13.6181 43.4763 14.5806 43.9602 14.9064C44.5829 15.3272 45.0703 15.3199 45.0703 15.3199C45.0703 15.3199 44.3231 14.91 44.5473 14.1012C44.7465 13.3766 46.2125 13.2595 46.2659 13.5596V18.5369C45.5614 18.5295 43.3019 18.6064 42.2843 20.5973C41.6687 21.8014 41.7078 23.1445 42.3625 24.0924C42.8963 24.8646 43.9993 25.8527 45.8923 25.5197" fill="#0D0D0D"/>
<path d="M64.5277 15.3816L61.8911 17.3689V10.7593L64.5277 15.3816ZM64.453 9.03192C64.453 9.03192 62.6739 10.1408 61.4783 10.8728C60.2828 11.6011 58.6816 12.4062 58.6816 12.4062V20.0954L57.6106 20.9774L57.7529 21.1494L58.7955 20.2857L62.0654 23.327L67.7478 18.6974L67.6126 18.529L64.4708 21.0653L61.8875 18.5803V17.6544L67.0718 13.7311L64.4459 9.03924L64.453 9.03192Z" fill="#0D0D0D"/>
<path d="M72.394 23.3818L69.6079 20.9993L68.3839 21.9143L68.2594 21.7349L69.5047 20.798V14.1409C69.5652 11.3997 67.0638 12.0805 67.199 9.17093C67.2595 7.89367 68.4622 6.92749 69.0706 6.60543C69.7218 6.26873 70.4227 6.26873 70.4227 6.26873C70.4227 6.26873 69.2806 7.00069 69.5581 8.05836C69.9851 9.6833 72.6857 9.82969 72.7391 11.9963V19.5501L74.7352 21.1933L75.2583 20.7724V12.5965L74.1837 11.4986L76.952 8.97697L79.4818 11.2826L78.5176 12.3586V19.605L80.8873 21.6178L81.3072 21.3397V12.6184L80.2291 11.5827L83.0044 8.97331L85.5983 11.1802L86.6338 10.2359L86.7725 10.4043L84.4384 12.5123V19.6196L78.4713 23.4075L75.4184 20.9225L72.3904 23.3928" fill="#0D0D0D"/>
<path d="M194.57 15.3816L191.934 17.3689V10.7593L194.57 15.3816ZM194.496 9.03192C194.496 9.03192 192.717 10.1408 191.521 10.8728C190.326 11.6011 188.721 12.4062 188.721 12.4062V20.0954L187.65 20.9774L187.792 21.1494L188.835 20.2857L192.105 23.327L197.787 18.6974L197.652 18.529L194.51 21.0653L191.927 18.5803V17.6544L197.111 13.7311L194.485 9.03924L194.496 9.03192Z" fill="#0D0D0D"/>
<path d="M167.816 12.2493L167.955 12.4177L169.026 11.4698L170.617 13.318V19.6714L169.845 20.396L172.321 23.2726L174.858 20.6997L173.815 19.5872V11.9016L174.449 11.3856L176.203 13.4937V19.8287L175.545 20.5058L177.875 23.203L180.366 20.6375L179.452 19.6494L179.427 11.9346L180.099 11.371L181.932 13.4461V19.7445L181.33 20.363L183.903 23.2506L187.358 19.9678L187.212 19.8068L186.372 20.6009L185.088 19.1334V11.9419L186.33 10.9721L186.198 10.7964L184.956 11.7662L182.604 9.058L179.242 11.7882L176.89 9.15316L173.641 11.7662L171.264 9.1678L167.816 12.2493Z" fill="#0D0D0D"/>
<path d="M160.781 12.0517L160.92 12.2201L161.827 11.4149L163.24 13.1387V20.3997L162.244 21.2963L162.383 21.4647L163.429 20.5461L165.709 23.2506L169.008 20.224L168.866 20.0557L167.898 20.9377L166.535 19.32V12.2201L167.684 11.1954L167.545 11.0307L166.453 11.9968L164.051 9.1166L160.781 12.0517Z" fill="#0D0D0D"/>
<path d="M161.734 6.03842L164.218 3.69983L166.235 6.00183L163.741 8.32944L161.734 6.03842Z" fill="#0D0D0D"/>
<path d="M151.5 17.4826V9.42377L149.144 10.5034C149.144 10.5034 148.543 11.8868 148.649 13.896C148.731 15.4661 149.585 17.3399 150.24 18.1267L151.5 17.4789M158.395 0.892841C158.975 0.944078 159.89 1.24052 160.576 1.85902C161.306 2.58732 161.473 3.69623 161.217 4.70267C160.989 5.59931 160.733 6.0641 159.843 6.6826C158.947 7.30477 157.858 7.25353 157.858 7.25353V11.1365L159.694 12.6663L157.858 14.1888V19.4772C157.858 19.4772 159.698 18.3939 160.84 15.9638C160.84 15.9638 160.886 15.832 160.993 15.5795C161.096 16.231 161.035 17.5485 160.32 19.2393C159.779 20.5129 158.801 21.7389 157.57 22.4379C155.389 23.6823 153.755 23.7994 152.001 23.4261C149.948 22.9906 148.084 21.8048 146.813 19.737C145.92 18.2841 145.518 16.586 145.554 14.7634C145.625 11.1841 148.215 8.09528 151.204 6.94245C151.567 6.80338 151.713 6.70822 152.229 6.66065C151.991 6.82899 151.717 7.04126 151.379 7.27183C150.414 7.92327 149.592 9.21883 149.24 10.2143L155.04 7.55363V15.8979L150.361 18.3097C150.895 19.0709 152.514 20.2201 153.901 20.3848C156.257 20.652 157.641 19.5943 157.641 19.5943V14.1888L155.816 12.6663L157.641 11.1402V7.25353C156.645 7.13642 155.435 6.79606 154.727 6.61673C153.684 6.35322 150.215 5.35045 149.671 5.26627C149.126 5.1821 148.454 5.20771 148.048 5.58101C147.643 5.95797 147.39 6.62039 147.561 7.22059C147.66 7.55729 147.884 7.75492 148.055 7.94889C148.055 7.94889 147.856 7.93059 147.493 7.70734C146.838 7.30477 146.34 6.51059 146.28 5.53709C146.205 4.25983 146.714 3.107 147.739 2.33479C148.628 1.74557 149.635 1.36861 150.809 1.54062C152.517 1.78949 154.816 2.78494 156.862 3.28999C157.655 3.48762 158.267 3.5535 158.826 3.22046C159.086 3.02649 159.541 2.53242 159.167 1.87C158.733 1.09779 157.897 1.11609 157.189 0.977016C157.798 0.845264 157.933 0.845264 158.388 0.889181L158.395 0.892841Z" fill="#0D0D0D"/>
<path d="M201.891 10.5179V14.335L203.126 15.4403C203.126 15.4403 205.809 13.2298 206.784 11.184C206.784 11.184 205.578 12.8675 203.955 12.3514C202.596 11.9269 201.891 10.5142 201.891 10.5142M198.895 20.6372C198.895 20.6372 200.07 18.6389 202.091 19.0671C204.026 19.4807 204.699 21.585 204.699 21.585V16.7395L203.347 15.5318C201.863 17.0652 199.223 19.283 198.895 20.6372ZM200.82 24.3152C200.443 24.4287 198.806 24.0225 198.415 22.2767C198.034 20.5749 199.18 19.4258 200.913 17.6142L198.867 15.6892V12.0147C198.867 12.0147 200.372 11.2425 201.55 10.485C202.728 9.72372 203.934 8.90393 203.934 8.90393C203.934 8.90393 204.813 10.0458 205.805 9.95428C207.36 9.81521 207.289 8.55259 207.243 8.25249C207.51 8.73924 208.218 10.1885 205.485 13.4311L207.713 15.2793V20.0516C207.713 20.0516 205.126 21.435 202.681 23.2722C202.681 23.2722 201.315 21.5155 200.13 22.3536C199.33 22.9209 199.696 23.8761 200.82 24.3079V24.3152Z" fill="#0D0D0D"/>
<path d="M111.326 18.8917L114.201 21.567V13.3764L111.326 10.6389V18.888M117.254 12.2016L118.257 11.2538L118.4 11.4221L117.425 12.3517V19.9384C117.425 19.9384 115.571 20.9485 114.276 21.6987C112.984 22.449 111.6 23.331 111.6 23.331L108.198 20.3849L107.298 21.19L107.152 21.0217L108.099 20.1726V12.0223H108.113C108.113 12.0223 109.718 11.2757 111.073 10.4889C112.283 9.78618 113.639 8.97371 113.639 8.97371L117.258 12.209L117.254 12.2016Z" fill="#0D0D0D"/>
<path d="M123.944 11.437L126.104 9.16427C126.104 9.16427 126.403 9.43144 126.681 9.57417C126.841 9.65468 127.492 9.9987 128.093 9.662C128.417 9.47902 128.463 9.42778 128.823 9.08376C128.897 10.8514 128.072 12.0921 127.043 12.6081C126.624 12.8204 125.392 13.223 124.108 11.609V19.7703L125.478 21.0146L126.62 20.0448L126.752 20.2168L123.176 23.2873L120.454 20.7401L119.475 21.688L119.315 21.5124L120.806 20.129L120.82 13.0802L119.678 11.5212L118.696 12.4142L118.554 12.2531L122.019 9.05082L123.955 11.4407" fill="#0D0D0D"/>
<path d="M133.06 14.8366L137.055 8.85655C137.055 8.85655 137.582 9.49701 138.5 9.74953C139.749 10.0826 140.838 8.84557 140.838 8.84557C140.628 10.4449 139.841 12.2601 138.215 12.5346C136.781 12.7798 135.447 11.6343 135.447 11.6343L135.187 12.0479L140.735 20.6666L141.845 19.6639L141.987 19.8322L138.18 23.2541L133.056 14.8366" fill="#0D0D0D"/>
<path d="M129.76 6.85484C129.76 5.56294 129.244 4.76877 128.575 4.82367L132.934 1.6726V19.503L134.083 20.751L134.955 19.9751L135.09 20.1435L131.578 23.2982L129.198 20.9999L128.244 21.8599L128.095 21.6916L129.756 20.202V6.85484" fill="#0D0D0D"/>
<path d="M101.768 11.8687C101.768 11.8687 101.287 12.4323 100.529 12.4323C99.7715 12.4323 99.2769 11.865 99.2769 11.865V14.3061C99.2769 14.3061 99.7715 13.7388 100.529 13.7388C101.287 13.7388 101.768 14.2731 101.768 14.2731V11.865M101.768 6.63154L100.085 5.11273L99.2733 5.77149V11.4954C99.2733 11.4954 99.7715 12.1468 100.529 12.1468C101.287 12.1468 101.764 11.5247 101.764 11.5247V6.6352L101.768 6.63154ZM99.2733 22.848C99.2733 22.848 100.291 23.1261 101.031 22.5003C101.853 21.8013 101.768 20.8241 101.768 20.8241V14.6464C101.768 14.6464 101.291 14.0133 100.533 14.0133C99.775 14.0133 99.2769 14.6684 99.2769 14.6684V22.848H99.2733ZM93.3134 6.55834C93.3134 5.35428 92.8366 4.68088 92.068 4.66624C90.9614 4.64062 90.6981 6.24726 90.6981 6.24726C90.6981 6.24726 90.4953 5.0066 91.5058 3.88305C92.0716 3.25357 93.1319 2.37156 94.7829 2.78146C96.4908 3.20599 96.9748 4.57109 96.9748 5.77149V22.3576C96.9748 22.3576 97.6188 22.4381 98.0636 22.5369C98.5759 22.6467 99.0634 22.7858 99.0634 22.7858V2.79244H99.2769V5.48969L102.778 2.59115L105.344 4.93706L106.539 3.87573L106.674 4.04408L105.425 5.14933V20.568C105.365 21.5744 105.205 22.5955 104.283 23.1847C102.223 24.44 99.7395 22.9907 97.5227 22.6614C95.8788 22.4088 93.2992 22.0904 92.6516 23.6422C92.4416 24.1509 92.4559 24.9377 93.1995 25.4538C94.694 26.4822 101.355 23.7263 103.643 24.8206C105.724 25.8161 105.717 27.3971 105.397 28.4804C104.856 30.5152 102.358 30.8702 102.358 30.8702C102.358 30.8702 103.579 30.1419 103.23 28.9342C103.052 28.323 102.65 28.151 101.344 28.3011C98.4905 28.6341 95.0747 30.0578 92.7832 29.0696C91.6019 28.5646 90.7657 27.0421 90.8476 25.5489C90.9081 23.4006 93.317 22.5516 93.317 22.5516V14.6025C93.2458 14.2878 91.9613 14.3683 91.6802 14.9539C91.2532 15.8359 92.2104 16.2421 92.2104 16.2421C92.2104 16.2421 91.4133 16.3665 90.7479 15.5724C90.4242 15.1844 89.7445 13.834 90.627 12.5787C91.3528 11.5466 92.221 11.3673 93.317 11.2429V6.562L93.3134 6.55834Z" fill="#0D0D0D"/>
</svg>
