<svg width="82" height="28" viewBox="0 0 82 28" fill="none" xmlns="http://www.w3.org/2000/svg">
<path d="M76.1431 0H59.2224L54.1456 5.14274V22.2834L59.2224 27.4249H76.1431L81.2198 22.2834V17.1407L79.528 15.4243H71.0663V17.1407H64.2978V10.2842H71.0663V11.9769H79.528L81.2198 10.2842V5.14274" fill="#0D0D0D"/>
<path d="M25.381 0H18.6138L16.9207 1.71513V8.57035L8.46164 0H1.69311L0 1.71513V25.7097L1.69311 27.4249H8.46164L10.1534 25.7097V18.8545L18.6138 27.4249H25.381L27.0741 25.7097V1.71513" fill="#0D0D0D"/>
<path d="M37.225 27.4249H43.9948L45.6853 25.711V20.5696L54.1456 11.998V1.71381L52.4538 0H45.6853L43.9948 1.71381V5.14142L40.6099 8.57035L37.225 5.14142V1.71381L35.5332 0H28.7646L27.0741 1.71381V11.998L35.5332 20.5696V25.711" fill="#0D0D0D"/>
</svg>
