<svg width="110" height="43" viewBox="0 0 110 43" fill="none" xmlns="http://www.w3.org/2000/svg">
<path d="M15.6266 1.37834C7.26263 1.37834 0.162598 7.37632 0.162598 16.6004C0.162598 24.9005 6.4824 31.4779 15.533 31.4779C23.8814 31.4779 30.997 25.4799 30.997 16.2558C30.997 7.97142 24.6772 1.37834 15.6266 1.37834ZM15.6266 29.6926C10.1807 29.6926 6.27955 24.1018 6.27955 16.3968C6.27955 9.02068 9.9778 3.1793 15.5486 3.1793C20.9946 3.1793 24.8957 8.77011 24.8957 16.4751C24.8801 23.8512 21.1818 29.6926 15.6266 29.6926Z" fill="#0D0D0D"/>
<path d="M102.294 12.7947V14.0475L103.964 14.3764C104.541 14.5017 104.713 14.9558 104.338 15.8798L100.5 25.1508C100.328 25.5267 100.125 25.5267 100 25.1508L96.4268 15.8955C96.0523 14.9402 96.2551 14.5173 96.8481 14.392L98.5022 14.0632V12.8103H83.7091V14.0632L85.3788 14.392C85.9562 14.5173 86.1746 14.9715 85.8001 15.8955L82.1019 25.652C81.9302 26.0278 81.7274 26.0278 81.6025 25.652L77.8575 15.8955C77.5298 14.9402 77.6858 14.5173 78.2788 14.392L79.9329 14.0632V12.8103H70.539V14.0945L71.4596 14.2981C72.0838 14.4234 72.4583 14.7522 72.708 15.3473L79.059 31.0235H81.9302L88.2812 15.3473C88.6089 14.5173 88.9835 14.1728 89.6544 14.1728H89.9041C90.4503 14.1728 90.856 14.3764 91.1993 15.1751L97.8468 31.4464L96.0679 35.706C94.8975 38.5406 94.0393 39.0417 92.947 39.0417C92.4945 39.0417 91.9951 38.9634 91.4958 38.9634C90.2006 38.9634 89.4204 39.8874 89.4204 40.874C89.4204 42.0016 90.341 42.8003 91.7923 42.8003C93.8676 42.8003 95.9118 41.1246 97.6127 37.1311L106.663 15.8172C107.085 14.8619 107.615 14.439 108.489 14.2668L109.394 14.0945V12.7947H102.294Z" fill="#0D0D0D"/>
<path d="M44.0405 29.3948L37.0965 30.2718C34.8183 30.5694 34.1005 29.8177 34.1005 28.6431C34.1005 27.265 35.5985 26.1844 40.7948 26.1844H40.8728C44.6491 26.1844 49.0964 23.898 49.0964 18.9336C49.0964 17.3519 48.519 15.8954 47.4267 14.7209C47.0522 13.9692 46.9273 13.2175 46.9273 12.1369C46.9273 8.47236 49.424 6.3895 51.9988 6.3895C53.0755 6.3895 53.4188 6.56177 53.4188 7.31348C53.4188 7.51706 53.372 7.68933 53.372 7.9399C53.372 9.23972 54.4487 10.4456 55.9935 10.4456C57.5696 10.4456 58.5683 9.19274 58.5683 7.81461C58.5683 5.73176 56.6957 4.18137 53.2471 4.18137C48.5034 4.18137 44.8519 7.26649 44.8519 11.9803C44.8519 12.3562 44.8988 12.6537 44.8988 12.9356C43.822 12.4815 42.4957 12.1839 41.0288 12.1839C37.2838 12.1839 32.8053 14.4703 32.8053 19.4347C32.8053 21.7212 34.1005 23.851 36.3319 25.1038C33.0082 25.558 31.1044 27.359 31.1044 30.1465C31.1044 32.9811 33.3514 35.0326 37.549 34.5315L43.6192 33.7798C46.6464 33.4039 47.6451 34.4845 47.6451 36.0662C47.6451 38.8225 45.0704 41.0306 40.9508 41.0306C37.6739 41.0306 36.4567 39.8561 36.4567 38.1961C36.4567 37.9455 36.5035 37.6166 36.5035 37.366C36.5035 36.3638 35.8794 35.659 34.8807 35.6121C33.7103 35.6121 33.0081 36.4421 33.0081 37.6479C33.0081 40.4042 35.6297 42.8629 40.982 42.8629C47.0053 42.8629 50.8284 38.9478 50.8284 34.4375C50.844 30.8513 47.9884 28.8937 44.0405 29.3948ZM40.9196 13.6717C42.8702 13.6717 44.4462 15.8798 44.4462 19.2625C44.4462 22.1753 43.1198 24.681 41.0444 24.681C39.0471 24.681 37.471 22.4729 37.471 19.0902C37.471 16.2243 38.7974 13.6717 40.9196 13.6717Z" fill="#0D0D0D"/>
<path d="M68.9283 28.8624V0L61.6098 1.87926V2.75625L63.6852 3.42966C64.0129 3.55494 64.1377 3.80551 64.1377 4.13438V28.7371C64.1377 29.1912 63.7632 29.5358 63.217 29.5358L61.3601 29.5671L59.394 29.5358C58.8478 29.5358 58.4733 29.2069 58.4733 28.7371V12.0899L51.1548 13.9692V14.8462L53.2302 15.5196C53.5579 15.6449 53.6827 15.8954 53.6827 16.2243V28.8624C53.6827 29.2382 53.4799 29.4418 53.1834 29.4888L51.4825 29.6924V31.0235H71.425V29.6924L69.3964 29.4888C69.1311 29.4418 68.9283 29.2382 68.9283 28.8624Z" fill="#0D0D0D"/>
</svg>
