<svg width="123" height="30" viewBox="0 0 123 30" fill="none" xmlns="http://www.w3.org/2000/svg">
<path d="M29.9359 3.74318H37.5426C40.3644 3.74318 42.2048 3.86259 43.7997 5.53142C44.9039 6.72354 45.5174 8.15411 45.5174 9.82312C45.5174 11.4921 44.9039 12.9227 43.677 14.1148C42.4502 15.3069 40.8552 16.0222 36.8065 16.0222H33.1258V25.917H29.9359V3.74318ZM33.1258 13.5187H36.8065C38.8922 13.5187 42.0821 13.3998 42.0821 9.7039C42.0821 6.2467 39.1376 6.24671 37.4199 6.24671H33.1258V13.5187ZM55.7005 25.917C55.4551 25.2017 55.4551 24.3672 55.4551 23.6519C53.9829 26.1554 51.8972 26.3938 50.5476 26.3938C46.8669 26.3938 44.9039 24.3672 44.9039 21.8637C44.9039 20.6716 45.3947 18.6449 47.7258 17.3336C49.4434 16.3799 51.8972 16.3799 53.2467 16.3799C53.9829 16.3799 54.4736 16.3799 55.3324 16.4993C55.3324 14.5919 55.3324 13.7573 54.719 13.0421C54.1055 12.3268 52.8787 12.0883 52.0198 12.0883C49.0753 12.0883 48.8299 14.115 48.8299 14.7111H45.8854C46.0081 13.8766 46.1308 12.8036 46.9896 11.8499C48.2165 10.5386 50.4249 10.1809 52.1425 10.1809C54.4736 10.1809 56.9274 10.8962 57.7862 12.446C58.2769 13.3997 58.2769 14.115 58.2769 14.8303L58.1543 22.2215C58.1543 22.4599 58.1543 24.4866 58.3996 26.0364H55.7005V25.917ZM53.6148 18.2873C52.3879 18.2873 47.8484 18.2873 47.8484 21.3869C47.8484 22.3406 48.4619 24.0096 51.161 24.0096C52.6333 24.0096 53.8602 23.4135 54.5963 22.3406C55.2097 21.2677 55.3324 20.4332 55.3324 18.2873C54.8417 18.4067 54.3509 18.2873 53.6148 18.2873V18.2873ZM60.8534 3.74318H63.7979V25.917H60.8534V3.74318ZM76.5575 25.917C76.3121 25.2017 76.3121 24.3672 76.3121 23.6519C74.8399 26.1554 72.7542 26.3938 71.4046 26.3938C67.724 26.3938 65.7609 24.3672 65.7609 21.8637C65.7609 20.6716 66.2517 18.6449 68.5828 17.3336C70.3004 16.3799 72.7542 16.3799 74.1037 16.3799C74.8399 16.3799 75.3306 16.3799 76.1895 16.4993C76.1895 14.5919 76.1894 13.7573 75.576 13.0421C74.9626 12.3268 73.7357 12.0883 72.8769 12.0883C69.9323 12.0883 69.687 14.115 69.687 14.7111H66.7424C66.8651 13.8766 66.9878 12.8036 67.8466 11.8499C69.0735 10.5386 71.2819 10.1809 72.9996 10.1809C75.3306 10.1809 77.7844 10.8962 78.6432 12.446C79.134 13.3997 79.134 14.115 79.134 14.8303L79.0113 22.2215C79.0113 22.4599 79.0113 24.4866 79.2567 26.0364H76.5575V25.917ZM74.5945 18.2873C73.3676 18.2873 68.8281 18.2873 68.8281 21.3869C68.8281 22.3406 69.4416 24.0096 72.1407 24.0096C73.613 24.0096 74.8399 23.4135 75.576 22.3406C76.1894 21.2677 76.3121 20.4332 76.3121 18.2873C75.6987 18.4067 75.3306 18.2873 74.5945 18.2873V18.2873ZM81.8331 12.3266V10.5384H84.7776V13.0419C85.1457 12.4458 86.2499 10.2999 89.8079 10.2999C91.2801 10.2999 95.5742 10.7768 95.5742 15.5454V26.0362H92.507V16.2607C92.507 15.3069 92.3843 14.3532 91.6482 13.638C90.912 12.9227 89.8079 12.565 88.8264 12.565C86.618 12.565 84.6549 14.1148 84.6549 17.2144V26.0362H81.7104V12.3266H81.8331ZM96.5557 10.5384H99.3775V7.20037L102.322 6.24671V10.4192H105.88V12.565H102.322V21.7445C102.322 22.4598 102.322 23.7711 104.408 23.7711C105.021 23.7711 105.635 23.6517 105.88 23.6517V25.9168C105.389 26.0362 104.53 26.1552 103.426 26.1552C100.604 26.1552 99.3775 25.3206 99.3775 22.8171V12.5648H96.5557V10.5384ZM107.966 3.74318H111.524V6.96197H107.966V3.74318ZM108.211 10.5384H111.156V25.917H108.211V10.5384ZM113.977 13.638C113.977 12.5651 113.855 11.4921 113.855 10.5384H116.799L116.922 13.5187C117.535 11.3729 119.376 10.6576 120.725 10.5384C121.584 10.419 122.32 10.419 122.811 10.419V13.2801C122.688 13.2801 122.443 13.1608 122.198 13.1608C121.952 13.1608 121.707 13.1608 121.339 13.1608C117.781 13.1608 117.045 15.1874 117.045 17.8101V26.0359H114.1V13.6376L113.977 13.638ZM11.6554 0.762817C5.52097 0.762817 0.490752 5.65061 0.490752 11.6113C0.490752 17.572 5.52097 22.4598 11.6554 22.4598C17.7898 22.4598 22.82 17.572 22.82 11.6113C22.82 5.65061 17.7898 0.762817 11.6554 0.762817ZM11.6554 19.1218C7.3613 19.1218 3.92603 15.7838 3.92603 11.6113C3.92603 7.43884 7.3613 4.10086 11.6554 4.10086C15.9495 4.10086 19.3848 7.43884 19.3848 11.6113C19.2621 15.7838 15.8268 19.1218 11.6554 19.1218ZM21.5932 21.5061L11.6554 25.6786L1.71764 21.5061L0 24.4864L11.6554 29.255L23.3108 24.4864L21.5932 21.5061Z" fill="#0D0D0D"/>
</svg>
