<svg width="127" height="31" viewBox="0 0 127 31" fill="none" xmlns="http://www.w3.org/2000/svg">
<path d="M30.957 3.15249H38.8232C41.7412 3.15249 43.6443 3.27822 45.2937 5.03537C46.4355 6.29058 47.0699 7.79686 47.0699 9.55419C47.0699 11.3115 46.4355 12.8178 45.1668 14.073C43.8981 15.3282 42.2487 16.0814 38.0619 16.0814H34.2557V26.4998H30.957V3.15249ZM34.2557 13.4454H38.0619C40.2188 13.4454 43.5175 13.3201 43.5175 9.42867C43.5175 5.78851 40.4725 5.78852 38.6963 5.78852H34.2557V13.4454ZM57.6004 26.4998C57.3466 25.7466 57.3466 24.868 57.3466 24.1148C55.8242 26.7508 53.6673 27.0019 52.2717 27.0019C48.4655 27.0019 46.4355 24.868 46.4355 22.232C46.4355 20.9768 46.943 18.8429 49.3536 17.4621C51.1298 16.4579 53.6673 16.4579 55.0629 16.4579C55.8242 16.4579 56.3316 16.4579 57.2198 16.5837C57.2198 14.5753 57.2198 13.6966 56.5854 12.9435C55.951 12.1903 54.6823 11.9393 53.7942 11.9393C50.7492 11.9393 50.4955 14.0732 50.4955 14.7008H47.4505C47.5774 13.8222 47.7043 12.6924 48.5924 11.6883C49.8611 10.3075 52.1448 9.93095 53.9211 9.93095C56.3316 9.93095 58.8691 10.6841 59.7572 12.3159C60.2647 13.3201 60.2647 14.0732 60.2647 14.8264L60.1378 22.6088C60.1378 22.8597 60.1378 24.9937 60.3916 26.6255H57.6004V26.4998ZM55.4435 18.4663C54.1748 18.4663 49.4805 18.4663 49.4805 21.7299C49.4805 22.7341 50.1149 24.4914 52.9061 24.4914C54.4286 24.4914 55.6973 23.8638 56.4585 22.7341C57.0929 21.6044 57.2198 20.7257 57.2198 18.4663C56.7123 18.592 56.2048 18.4663 55.4435 18.4663ZM62.9291 3.15249H65.974V26.4998H62.9291V3.15249ZM79.1688 26.4998C78.9151 25.7466 78.9151 24.868 78.9151 24.1148C77.3926 26.7508 75.2357 27.0019 73.8401 27.0019C70.0339 27.0019 68.004 24.868 68.004 22.232C68.004 20.9768 68.5115 18.8429 70.9221 17.4621C72.6983 16.4579 75.2357 16.4579 76.6313 16.4579C77.3926 16.4579 77.9001 16.4579 78.7882 16.5837C78.7882 14.5753 78.7882 13.6966 78.1538 12.9435C77.5195 12.1903 76.2507 11.9393 75.3626 11.9393C72.3177 11.9393 72.0639 14.0732 72.0639 14.7008H69.019C69.1458 13.8222 69.2727 12.6924 70.1608 11.6883C71.4296 10.3075 73.7133 9.93095 75.4895 9.93095C77.9001 9.93095 80.4375 10.6841 81.3257 12.3159C81.8331 13.3201 81.8331 14.0732 81.8331 14.8264L81.7063 22.6088C81.7063 22.8597 81.7063 24.9937 81.96 26.6255H79.1688V26.4998ZM77.1388 18.4663C75.8701 18.4663 71.1758 18.4663 71.1758 21.7299C71.1758 22.7341 71.8102 24.4914 74.6014 24.4914C76.1239 24.4914 77.3926 23.8638 78.1538 22.7341C78.7882 21.6044 78.9151 20.7257 78.9151 18.4663C78.2807 18.592 77.9001 18.4663 77.1388 18.4663ZM84.6244 12.1901V10.3073H87.6693V12.9433C88.05 12.3157 89.1918 10.0563 92.8711 10.0563C94.3936 10.0563 98.8341 10.5584 98.8341 15.5793V26.6253H95.6623V16.3324C95.6623 15.3282 95.5354 14.3241 94.7742 13.5709C94.013 12.8178 92.8711 12.4412 91.8561 12.4412C89.5724 12.4412 87.5424 14.073 87.5424 17.3366V26.6253H84.4975V12.1901H84.6244ZM99.8491 10.3073H102.767V6.79264L105.812 5.78852V10.1818H109.491V12.4412H105.812V22.1065C105.812 22.8596 105.812 24.2404 107.969 24.2404C108.603 24.2404 109.238 24.1147 109.491 24.1147V26.4996C108.984 26.6253 108.096 26.7506 106.954 26.7506C104.036 26.7506 102.767 25.8719 102.767 23.2359V12.4409H99.8491V10.3073ZM111.648 3.15249H115.328V6.54163H111.648V3.15249ZM111.902 10.3073H114.947V26.4998H111.902V10.3073ZM117.865 13.5709C117.865 12.4412 117.738 11.3115 117.738 10.3073H120.783L120.91 13.4454C121.544 11.1859 123.448 10.4328 124.843 10.3073C125.731 10.1816 126.493 10.1816 127 10.1816V13.1942C126.873 13.1942 126.619 13.0685 126.366 13.0685C126.112 13.0685 125.858 13.0685 125.478 13.0685C121.798 13.0685 121.037 15.2023 121.037 17.9638V26.6249H117.992V13.5705L117.865 13.5709ZM12.0529 0.0144043C5.70929 0.0144043 0.507491 5.16086 0.507491 11.437C0.507491 17.7132 5.70929 22.8596 12.0529 22.8596C18.3966 22.8596 23.5984 17.7132 23.5984 11.437C23.5984 5.16086 18.3966 0.0144043 12.0529 0.0144043ZM12.0529 19.345C7.61238 19.345 4.05994 15.8303 4.05994 11.437C4.05994 7.04373 7.61238 3.5291 12.0529 3.5291C16.4935 3.5291 20.046 7.04373 20.046 11.437C19.9191 15.8303 16.3666 19.345 12.0529 19.345ZM22.3297 21.8554L12.0529 26.2487L1.77622 21.8554L0 24.9935L12.0529 30.0144L24.1059 24.9935L22.3297 21.8554Z" fill="white"/>
</svg>
