<svg width="138" height="28" viewBox="0 0 138 28" fill="none" xmlns="http://www.w3.org/2000/svg">
<path d="M20.0242 26.9746L12.5887 15.0734C15.5703 14.0512 17.3739 11.6418 17.3739 8.50223C17.3739 4.23095 14.1715 1.41994 9.27591 1.41994H0V26.9746H3.34964V15.5845H9.05506L16.196 26.9746H20.0242ZM3.34964 4.37698H8.90782C12.0734 4.37698 13.9507 5.91026 13.9507 8.50223C13.9507 11.0942 12.0734 12.591 8.90782 12.591H3.34964V4.37698Z" fill="#0D0D0D"/>
<path d="M29.2667 8.28319C25.365 8.28319 22.3098 10.6561 21.7577 14.3068L24.6656 14.8544C24.9233 12.3719 26.7269 10.8752 29.2667 10.8752C31.9906 10.8752 33.7943 12.4815 33.7943 15.0004V15.3655L30.187 15.7671C24.2607 16.3512 21.3528 18.286 21.3528 21.8272C21.3528 25.0032 23.8926 27.2666 27.6103 27.2666C30.2974 27.2666 32.7268 25.9524 33.7943 23.835V26.9746H36.8862V15.1829C36.8862 10.9117 33.7575 8.28319 29.2667 8.28319ZM28.0889 24.7112C25.9539 24.7112 24.4816 23.5065 24.4816 21.7906C24.4816 19.8558 26.4324 18.5781 30.187 18.1765L33.7943 17.7749V18.6511C33.7943 22.3382 31.6962 24.7112 28.0889 24.7112Z" fill="#0D0D0D"/>
<path d="M49.4825 27.2666C52.2063 27.2666 54.6726 25.9889 55.5192 24.3096V26.9746H58.6479V1.12789H55.5192V11.2037C54.3413 9.48791 51.9119 8.28319 49.4456 8.28319C43.7034 8.28319 40.5378 12.3719 40.5378 17.7749C40.5378 23.1779 43.7034 27.2666 49.4825 27.2666ZM49.7769 24.4921C46.1328 24.4921 43.7402 21.8272 43.7402 17.7749C43.7402 13.7227 46.1328 11.0577 49.7769 11.0577C53.421 11.0577 55.8136 13.7227 55.8136 17.7749C55.8136 21.8272 53.421 24.4921 49.7769 24.4921Z" fill="#0D0D0D"/>
<path d="M64.8903 5.10711C66.1786 5.10711 67.1356 4.15794 67.1356 2.95322C67.1356 1.71199 66.1786 0.762817 64.8903 0.762817C63.6388 0.762817 62.7185 1.71199 62.7185 2.95322C62.7185 4.15794 63.6388 5.10711 64.8903 5.10711ZM63.3443 26.9746H66.4731V8.57524H63.3443V26.9746Z" fill="#0D0D0D"/>
<path d="M79.5277 27.2666C85.0122 27.2666 88.9876 23.2874 88.9876 17.7749C88.9876 12.2624 85.0122 8.28319 79.5277 8.28319C74.0063 8.28319 70.1045 12.2624 70.1045 17.7749C70.1045 23.2874 74.0063 27.2666 79.5277 27.2666ZM79.5277 24.4921C75.8099 24.4921 73.3069 21.7176 73.3069 17.7749C73.3069 13.8322 75.8099 11.0577 79.5277 11.0577C83.2454 11.0577 85.7484 13.8322 85.7484 17.7749C85.7484 21.7176 83.2454 24.4921 79.5277 24.4921Z" fill="#0D0D0D"/>
<path d="M92.6234 26.9746H95.7522V1.12789H92.6234V26.9746Z" fill="#0D0D0D"/>
<path d="M107.371 8.28319C103.469 8.28319 100.414 10.6561 99.8621 14.3068L102.77 14.8544C103.028 12.3719 104.831 10.8752 107.371 10.8752C110.095 10.8752 111.899 12.4815 111.899 15.0004V15.3655L108.291 15.7671C102.365 16.3512 99.4572 18.286 99.4572 21.8272C99.4572 25.0032 101.997 27.2666 105.715 27.2666C108.402 27.2666 110.831 25.9524 111.899 23.835V26.9746H114.991V15.1829C114.991 10.9117 111.862 8.28319 107.371 8.28319ZM106.193 24.7112C104.058 24.7112 102.586 23.5065 102.586 21.7906C102.586 19.8558 104.537 18.5781 108.291 18.1765L111.899 17.7749V18.6511C111.899 22.3382 109.801 24.7112 106.193 24.7112Z" fill="#0D0D0D"/>
<path d="M128.875 27.2666C134.654 27.2666 137.82 23.1779 137.82 17.7749C137.82 12.3719 134.654 8.28319 128.912 8.28319C126.446 8.28319 124.016 9.48791 122.839 11.2037V1.12789H119.71V26.9746H122.839V24.3096C123.685 25.9889 126.151 27.2666 128.875 27.2666ZM128.581 24.4921C124.937 24.4921 122.581 21.8272 122.581 17.7749C122.581 13.7227 124.937 11.0577 128.581 11.0577C132.225 11.0577 134.617 13.7227 134.617 17.7749C134.617 21.8272 132.225 24.4921 128.581 24.4921Z" fill="#0D0D0D"/>
</svg>
