<svg width="136" height="22" viewBox="0 0 136 22" fill="none" xmlns="http://www.w3.org/2000/svg">
<path d="M5.12938 6.38439C5.03448 6.00005 5.0582 5.59695 5.1104 5.38603C5.24326 4.78138 5.66082 4.10175 6.87555 4.10175C8.00486 4.10175 8.66917 4.79076 8.66917 5.83131V7.01247H13.4806V5.67195C13.4854 1.52381 9.70359 0.862915 6.97045 0.862915C3.54454 0.862915 0.740225 1.98315 0.232506 5.10011C0.0901556 5.95786 0.0664304 6.70781 0.270467 7.66868C1.11034 11.5684 7.9669 12.698 8.96336 15.1635C9.15316 15.6228 9.09622 16.2134 9.00132 16.5696C8.84473 17.2071 8.40819 17.8586 7.11754 17.8586C5.90756 17.8586 5.18632 17.1649 5.18632 16.1196V14.287H0V15.7447C0 20.01 3.3927 21.2896 7.0179 21.2896C10.6431 21.2896 13.3715 20.1131 13.8365 16.9211C14.069 15.2759 13.8887 14.2073 13.8128 13.7995C13.0014 9.79665 5.6798 8.6108 5.12938 6.37502V6.38439ZM128.192 9.83415V12.6183H130.17V15.3791C130.175 15.6275 130.161 15.89 130.118 16.1056C130.038 16.6212 129.544 17.4977 128.144 17.4977C126.744 17.4977 126.26 16.6212 126.175 16.1056C126.137 15.89 126.123 15.6275 126.123 15.3791V6.66094C126.123 6.35158 126.142 6.01411 126.208 5.761C126.303 5.29697 126.716 4.37829 128.13 4.37829C129.544 4.37829 129.971 5.34384 130.052 5.761C130.113 6.03286 130.113 6.49689 130.113 6.49689V7.55618H134.972V6.9281C134.972 6.9281 134.996 6.27659 134.939 5.66726C134.574 2.09095 131.589 0.956658 128.168 0.956658C124.747 0.956658 121.814 2.10033 121.392 5.66726C121.354 5.99536 121.297 6.58125 121.297 6.9281V14.9478C121.297 15.2947 121.311 15.5665 121.378 16.204C121.691 19.6819 124.747 20.9146 128.159 20.9146C131.57 20.9146 134.621 19.6819 134.944 16.204C134.996 15.5619 135.001 15.2947 135.015 14.9478V9.83883H128.187L128.192 9.83415ZM94.6823 1.47225H89.7949V15.5806C89.8044 15.8243 89.7949 16.1009 89.7522 16.3024C89.6478 16.7758 89.2445 17.6898 87.8969 17.6898C86.5493 17.6898 86.1508 16.7805 86.0606 16.3024C86.0084 16.1009 86.0037 15.8243 86.0084 15.5806V1.47225H81.1305V15.14C81.1258 15.4962 81.1542 16.2134 81.1732 16.4009C81.5101 19.9584 84.3524 21.1208 87.9017 21.1208C91.451 21.1208 94.2932 19.9631 94.6396 16.4009C94.6633 16.2134 94.7013 15.4916 94.6823 15.14V1.47225V1.47225ZM49.8276 1.47225L47.3934 16.3727L44.9544 1.47225H37.0777L36.6648 20.5396H41.4905L41.6187 2.88308L44.9354 20.5396H49.8276L53.1538 2.88308L53.2867 20.5396H58.1219L57.6901 1.47225H49.8276V1.47225ZM20.6693 1.47225L17.0916 20.5396H22.3064L25.0016 2.88308L27.6303 20.5396H32.8071L29.2484 1.47225H20.6693V1.47225ZM111.736 16.8227L107.195 1.47225H100.03V20.3381H104.766L104.49 4.49547L109.373 20.3381H116.244V1.47225H111.475L111.741 16.8227H111.736ZM67.9109 6.43127C67.8207 6.05161 67.8492 5.6532 67.8919 5.44696C68.0295 4.83763 68.4471 4.17205 69.6428 4.17205C70.7579 4.17205 71.408 4.85638 71.408 5.88755V7.04997H76.172V5.7235C76.172 1.61286 72.4424 0.97072 69.7424 0.97072C66.345 0.97072 63.5644 2.08158 63.0614 5.17042C62.9238 6.00942 62.8954 6.75937 63.1089 7.71086C63.9345 11.5684 70.7294 12.6886 71.7116 15.1213C71.8872 15.5806 71.835 16.1712 71.7448 16.518C71.5977 17.1508 71.1612 17.793 69.8848 17.793C68.6843 17.793 67.9631 17.1086 67.9631 16.0821V14.2541H62.8384V15.7119C62.8384 19.9256 66.1837 21.2005 69.7804 21.2005C73.3771 21.2005 76.0771 20.0381 76.5326 16.8836C76.7508 15.2525 76.5848 14.1932 76.4994 13.7948C75.6975 9.83883 68.4565 8.64829 67.9109 6.44533V6.43127Z" fill="#0D0D0D"/>
</svg>
