<svg width="111" height="22" viewBox="0 0 111 22" fill="none" xmlns="http://www.w3.org/2000/svg">
<path fill-rule="evenodd" clip-rule="evenodd" d="M0.936035 14.5755C1.07843 18.9898 4.0688 21.2682 8.76794 21.2682C13.1823 21.2682 16.1442 19.1037 16.1442 15.6007C16.1442 12.354 14.1506 10.5313 10.7046 9.84783L7.51484 9.22128C5.83454 8.87952 4.78079 7.96817 4.78079 6.43027C4.78079 4.66453 6.43261 3.32599 8.91034 3.32599H9.19514C11.6159 3.32599 13.4386 4.74997 13.581 7.02834H16.429C16.2866 3.18359 13.4671 0.762817 9.05274 0.762817C4.75231 0.762817 1.93282 3.32599 1.93282 6.45875C1.93282 9.61999 3.784 11.4142 6.97372 12.0692L10.1634 12.7243C12.2709 13.1515 13.2962 14.0913 13.2962 15.7146C13.2962 17.3665 11.8437 18.705 9.16666 18.705H8.88186C5.8915 18.705 3.784 17.281 3.784 14.5755H0.936035ZM18.7647 14.5755C18.9071 18.9898 21.8975 21.2682 26.5966 21.2682C31.011 21.2682 33.9729 19.1038 33.9729 15.6008C33.9729 12.3541 31.9793 10.5314 28.5333 9.84788L25.3435 9.22132C23.6632 8.87957 22.6095 7.96822 22.6095 6.43032C22.6095 4.66458 24.2613 3.32603 26.739 3.32603H27.0238C29.4446 3.32603 31.2673 4.75002 31.4097 7.02839H34.2577C34.1153 3.18364 31.2958 0.762865 26.8814 0.762865C22.581 0.762865 19.7615 3.32603 19.7615 6.4588C19.7615 9.62004 21.6127 11.4143 24.8024 12.0693L27.9922 12.7243C30.0996 13.1515 31.1249 14.0913 31.1249 15.7147C31.1249 17.3665 29.6725 18.7051 26.9954 18.7051H26.7106C23.7202 18.7051 21.6127 17.2811 21.6127 14.5755H18.7647ZM38.1308 20.9835V1.04772H52.6554V3.61089H40.9788V9.44922H50.9467V12.0124H40.9788V18.4203H52.9402V20.9835H38.1308ZM72.7905 1.04772H69.9426V17.5374L60.6867 1.04772H56.6995V20.9835H59.5475V4.49376L68.8034 20.9835H72.7905V1.04772ZM84.2108 21.2682C79.5117 21.2682 76.5213 18.9898 76.3789 14.5755H79.2269C79.2269 17.2811 81.3344 18.7051 84.3247 18.7051H84.6095C87.2866 18.7051 88.7391 17.3665 88.7391 15.7147C88.7391 14.0913 87.7138 13.1515 85.6063 12.7243L82.4166 12.0693C79.2269 11.4143 77.3757 9.62004 77.3757 6.4588C77.3757 3.32603 80.1952 0.762865 84.4956 0.762865C88.91 0.762865 91.7295 3.18364 91.8719 7.02839H89.0239C88.8815 4.75002 87.0588 3.32603 84.638 3.32603H84.3532C81.8755 3.32603 80.2237 4.66458 80.2237 6.43032C80.2237 7.96822 81.2774 8.87957 82.9577 9.22132L86.1474 9.84788C89.5935 10.5314 91.5871 12.3541 91.5871 15.6008C91.5871 19.1038 88.6252 21.2682 84.2108 21.2682ZM95.7452 1.04772V20.9835H110.555V18.4203H98.5932V12.0124H108.561V9.44922H98.5932V3.61089H110.27V1.04772H95.7452Z" fill="#0D0D0D"/>
</svg>
