<svg width="181" height="27" viewBox="0 0 181 27" fill="none" xmlns="http://www.w3.org/2000/svg">
<path d="M168.083 3.18598H164.36V20.2041H168.083V8.03707C169.027 6.6473 170.706 5.67708 172.62 5.67708C175.177 5.67708 176.907 7.2504 176.907 9.80705V20.2041H180.631V9.07284C180.631 5.45419 178.008 2.89754 173.983 2.89754C171.492 2.89754 169.408 3.93331 168.083 5.7033V3.18598ZM153.229 5.51975C155.851 5.51975 157.673 7.06685 158.237 9.83328H148.312C148.85 7.09307 150.685 5.51975 153.229 5.51975ZM153.294 20.545C157.424 20.545 160.453 18.3686 161.554 14.7499H157.896C157.083 16.769 155.431 17.8703 153.32 17.8703C150.357 17.8703 148.338 15.825 148.155 12.3244H162.026V11.6295C162.026 6.01797 158.185 2.87132 153.294 2.87132C148.155 2.87132 144.405 6.28019 144.405 11.7213C144.405 17.1099 148.102 20.545 153.294 20.545ZM133.379 5.51975C136.001 5.51975 137.823 7.06685 138.387 9.83328H128.462C128.999 7.09307 130.822 5.51975 133.379 5.51975ZM133.444 20.545C137.574 20.545 140.603 18.3686 141.704 14.7499H138.046C137.22 16.769 135.581 17.8703 133.47 17.8703C130.507 17.8703 128.488 15.825 128.305 12.3244H142.176V11.6295C142.176 6.01797 138.335 2.87132 133.444 2.87132C128.305 2.87132 124.555 6.28019 124.555 11.7213C124.555 17.1099 128.239 20.545 133.444 20.545ZM118.183 3.18598H114.459V20.2041H118.183V8.57462C119.284 6.6473 121.644 5.89997 123.978 6.28019V2.87132C121.356 2.74021 119.402 3.88087 118.183 6.01797V3.18598ZM102.751 14.9335C99.9192 14.9335 97.8345 13.2946 97.8345 10.3315C97.8345 7.27662 99.8798 5.59841 102.751 5.59841C105.622 5.59841 107.668 7.26351 107.668 10.3315C107.668 13.2946 105.583 14.9335 102.751 14.9335ZM98.1754 20.2041H94.6092C95.4877 24.2947 98.9621 26.2221 103.63 26.2221C108.297 26.2221 111.418 24.085 111.418 20.8334C111.418 18.2768 109.556 17.1099 106.724 16.3232C109.621 15.5104 111.26 13.229 111.26 10.2397C111.26 8.60084 110.696 7.14551 109.713 5.97863C110.526 5.79508 111.378 5.75574 112.23 5.91308V2.76643C110.434 2.70087 109.084 3.30398 108.035 4.47086C106.553 3.48754 104.692 2.92376 102.712 2.92376C97.769 2.92376 94.229 5.95241 94.229 10.2397C94.229 15.8775 98.9621 17.2017 103.498 18.2506C107.065 19.0634 107.812 19.8894 107.812 21.0825C107.812 22.433 106.776 23.5736 103.551 23.5736C100.798 23.5736 98.8965 22.5641 98.1754 20.2041ZM87.8439 15.4055V5.95241H93.2063V3.18598H87.8439V0H84.1597V3.18598H79.8462V5.96552H84.1597V16.0872C84.1597 18.9192 85.6675 20.3483 89.4566 20.3483C90.5972 20.3483 91.7903 20.2172 93.2063 19.8501V17.1361C91.9739 17.4508 91.0299 17.5426 90.2695 17.5426C88.1586 17.5295 87.8439 16.769 87.8439 15.4055ZM70.6553 5.51975C73.2776 5.51975 75.1 7.06685 75.6638 9.83328H65.7387C66.2763 7.09307 68.1118 5.51975 70.6553 5.51975ZM70.7209 20.545C74.8509 20.545 77.8795 18.3686 78.9809 14.7499H75.3229C74.51 16.769 72.8711 17.8703 70.7471 17.8703C67.784 17.8703 65.7649 15.825 65.5814 12.3244H79.4529V11.6295C79.4529 6.01797 75.6113 2.87132 70.7209 2.87132C65.5814 2.87132 61.8316 6.28019 61.8316 11.7213C61.8316 17.1099 65.5289 20.545 70.7209 20.545ZM50.8052 5.51975C53.4275 5.51975 55.2499 7.06685 55.8137 9.83328H45.8886C46.4262 7.09307 48.2486 5.51975 50.8052 5.51975ZM50.8708 20.545C55.0008 20.545 58.0294 18.3686 59.1308 14.7499H55.4728C54.6599 16.769 53.0079 17.8703 50.897 17.8703C47.9339 17.8703 45.9148 15.825 45.7313 12.3244H59.6028V11.6295C59.6028 6.01797 55.7612 2.87132 50.8708 2.87132C45.7313 2.87132 41.9815 6.28019 41.9815 11.7213C41.9815 17.1099 45.6657 20.545 50.8708 20.545ZM32.8431 20.2041H36.6191L41.3784 3.18598H37.9433L34.6918 15.7988L31.0076 3.18598H27.7298L24.1112 15.6021L20.899 3.18598H17.241L22.0265 20.2041H25.8025L29.3032 7.90595L32.8431 20.2041ZM8.7975 20.545C13.3077 20.545 16.4543 18.3423 16.4543 15.2219C16.4543 8.48284 3.84153 11.4066 3.84153 7.56507C3.84153 6.30641 5.16575 5.42797 7.65684 5.42797C10.3708 5.42797 12.1015 6.50307 12.757 8.83684H16.2577C15.471 4.98219 12.3506 2.83198 7.69618 2.83198C3.0942 2.83198 0.262221 4.87731 0.262221 7.97151C0.262221 14.527 12.875 11.4984 12.875 15.6021C12.875 16.9263 11.6164 17.9621 8.78439 17.9621C5.95241 17.9621 4.1562 16.7297 3.55309 14.1861H0C0.786662 18.4341 4.0382 20.545 8.7975 20.545Z" fill="#0D0D0D"/>
</svg>
